<?xml version="1.0" encoding="us-ascii" standalone="no"?><svg xmlns="http://www.w3.org/2000/svg" xmlns:xlink="http://www.w3.org/1999/xlink" contentStyleType="text/css" height="240px" preserveAspectRatio="none" style="width:529px;height:240px;background:#FFFFFF;" version="1.1" viewBox="0 0 529 240" width="529px" zoomAndPan="magnify"><defs/><g><!--class Circulo--><g id="elem_Circulo"><rect codeLine="1" fill="#F1F1F1" height="118.4375" id="Circulo" rx="2.5" ry="2.5" style="stroke:#181818;stroke-width:0.5;" width="515" x="7" y="115"/><ellipse cx="238.25" cy="131" fill="#ADD1B2" rx="11" ry="11" style="stroke:#181818;stroke-width:1.0;"/><path d="M241.0156,126.875 Q241.1719,126.6563 241.3594,126.5469 Q241.5469,126.4375 241.7656,126.4375 Q242.1406,126.4375 242.375,126.6953 Q242.6094,126.9531 242.6094,127.5625 L242.6094,129.0156 Q242.6094,129.625 242.375,129.8906 Q242.1406,130.1563 241.7656,130.1563 Q241.4219,130.1563 241.2188,129.9531 Q241.0156,129.7656 240.9063,129.25 Q240.8594,128.8906 240.6719,128.7031 Q240.3438,128.3281 239.7344,128.1094 Q239.125,127.8906 238.5,127.8906 Q237.7344,127.8906 237.1016,128.2188 Q236.4688,128.5469 235.9766,129.2969 Q235.4844,130.0469 235.4844,131.0781 L235.4844,132.1719 Q235.4844,133.4063 236.375,134.2266 Q237.2656,135.0469 238.8594,135.0469 Q239.7969,135.0469 240.4531,134.7969 Q240.8438,134.6406 241.2656,134.2031 Q241.5313,133.9375 241.6797,133.8594 Q241.8281,133.7813 242.0313,133.7813 Q242.3594,133.7813 242.6172,134.0391 Q242.875,134.2969 242.875,134.6406 Q242.875,134.9844 242.5313,135.3906 Q242.0313,135.9688 241.2344,136.2969 Q240.1563,136.75 238.8594,136.75 Q237.3438,136.75 236.1406,136.125 Q235.1563,135.625 234.4688,134.5547 Q233.7813,133.4844 233.7813,132.2031 L233.7813,131.0469 Q233.7813,129.7188 234.3984,128.5703 Q235.0156,127.4219 236.1094,126.8047 Q237.2031,126.1875 238.4375,126.1875 Q239.1719,126.1875 239.8203,126.3516 Q240.4688,126.5156 241.0156,126.875 Z " fill="#000000"/><text fill="#000000" font-family="sans-serif" font-size="14" lengthAdjust="spacing" textLength="44" x="258.75" y="136.7285">Circulo</text><line style="stroke:#181818;stroke-width:0.5;" x1="8" x2="521" y1="147" y2="147"/><line style="stroke:#181818;stroke-width:0.5;" x1="8" x2="521" y1="155" y2="155"/><ellipse cx="18" cy="169.3047" fill="#84BE84" rx="3" ry="3" style="stroke:#038048;stroke-width:1.0;"/><text fill="#000000" font-family="sans-serif" font-size="14" lengthAdjust="spacing" textLength="225" x="27" y="173.5332">Circulo(paiRef:Objeto, _rotulo:char)</text><ellipse cx="18" cy="186.9141" fill="#84BE84" rx="3" ry="3" style="stroke:#038048;stroke-width:1.0;"/><text fill="#000000" font-family="sans-serif" font-size="14" lengthAdjust="spacing" textLength="489" x="27" y="191.1426">Circulo(paiRef:Objeto, _rotulo:char, _raio:double, ptoDeslocamento:Ponto4D)</text><ellipse cx="18" cy="204.5234" fill="#84BE84" rx="3" ry="3" style="stroke:#038048;stroke-width:1.0;"/><text fill="#000000" font-family="sans-serif" font-size="14" lengthAdjust="spacing" textLength="271" x="27" y="208.752">Atualizar(ptoDeslocamento:Ponto4D) : void</text><ellipse cx="18" cy="222.1328" fill="#84BE84" rx="3" ry="3" style="stroke:#038048;stroke-width:1.0;"/><text fill="#000000" font-family="sans-serif" font-size="14" lengthAdjust="spacing" textLength="183" x="27" y="226.3613">&#171;override&#187; ToString() : string</text></g><!--class Objeto--><g id="elem_Objeto"><rect fill="#F1F1F1" height="48" id="Objeto" rx="2.5" ry="2.5" style="stroke:#181818;stroke-width:0.5;" width="74" x="227.5" y="7"/><ellipse cx="242.5" cy="23" fill="#ADD1B2" rx="11" ry="11" style="stroke:#181818;stroke-width:1.0;"/><path d="M245.2656,18.875 Q245.4219,18.6563 245.6094,18.5469 Q245.7969,18.4375 246.0156,18.4375 Q246.3906,18.4375 246.625,18.6953 Q246.8594,18.9531 246.8594,19.5625 L246.8594,21.0156 Q246.8594,21.625 246.625,21.8906 Q246.3906,22.1563 246.0156,22.1563 Q245.6719,22.1563 245.4688,21.9531 Q245.2656,21.7656 245.1563,21.25 Q245.1094,20.8906 244.9219,20.7031 Q244.5938,20.3281 243.9844,20.1094 Q243.375,19.8906 242.75,19.8906 Q241.9844,19.8906 241.3516,20.2188 Q240.7188,20.5469 240.2266,21.2969 Q239.7344,22.0469 239.7344,23.0781 L239.7344,24.1719 Q239.7344,25.4063 240.625,26.2266 Q241.5156,27.0469 243.1094,27.0469 Q244.0469,27.0469 244.7031,26.7969 Q245.0938,26.6406 245.5156,26.2031 Q245.7813,25.9375 245.9297,25.8594 Q246.0781,25.7813 246.2813,25.7813 Q246.6094,25.7813 246.8672,26.0391 Q247.125,26.2969 247.125,26.6406 Q247.125,26.9844 246.7813,27.3906 Q246.2813,27.9688 245.4844,28.2969 Q244.4063,28.75 243.1094,28.75 Q241.5938,28.75 240.3906,28.125 Q239.4063,27.625 238.7188,26.5547 Q238.0313,25.4844 238.0313,24.2031 L238.0313,23.0469 Q238.0313,21.7188 238.6484,20.5703 Q239.2656,19.4219 240.3594,18.8047 Q241.4531,18.1875 242.6875,18.1875 Q243.4219,18.1875 244.0703,18.3516 Q244.7188,18.5156 245.2656,18.875 Z " fill="#000000"/><text fill="#000000" font-family="sans-serif" font-size="14" lengthAdjust="spacing" textLength="42" x="256.5" y="28.7285">Objeto</text><line style="stroke:#181818;stroke-width:0.5;" x1="228.5" x2="300.5" y1="39" y2="39"/><line style="stroke:#181818;stroke-width:0.5;" x1="228.5" x2="300.5" y1="47" y2="47"/></g><!--reverse link Objeto to Circulo--><g id="link_Objeto_Circulo"><path codeLine="7" d="M264.5,73.28 C264.5,89.55 264.5,94.03 264.5,114.99 " fill="none" id="Objeto-backto-Circulo" style="stroke:#181818;stroke-width:1.0;"/><polygon fill="none" points="264.5,55.28,258.5,73.28,270.5,73.28,264.5,55.28" style="stroke:#181818;stroke-width:1.0;"/></g><!--SRC=[ZOwz2i9048JxFCMM4PFEwWW1CRsYzhAvhBfoPiFUNGf_tjr4JIcunR0pV0nZ7NeFArORdS0zWU7caqyxv2qTpRg-K90C3YfXY8qzeyx-HqU7BAQHM3lAe0jIaNTYyKfj4BEHGHVLrBWC4HtVKDDV81ZeXPilNnJIaoetL9QmbrrGRa_f2FdtcpoJpoee7da-3Nu1]--></g></svg>