<?xml version="1.0" encoding="us-ascii" standalone="no"?><svg xmlns="http://www.w3.org/2000/svg" xmlns:xlink="http://www.w3.org/1999/xlink" contentStyleType="text/css" height="838px" preserveAspectRatio="none" style="width:1433px;height:838px;background:#FFFFFF;" version="1.1" viewBox="0 0 1433 838" width="1433px" zoomAndPan="magnify"><defs/><g><!--class Poligono--><g id="elem_Poligono"><rect codeLine="1" fill="#F1F1F1" height="188.875" id="Poligono" rx="2.5" ry="2.5" style="stroke:#181818;stroke-width:0.5;" width="473" x="7" y="643"/><ellipse cx="211.75" cy="659" fill="#ADD1B2" rx="11" ry="11" style="stroke:#181818;stroke-width:1.0;"/><path d="M214.5156,654.875 Q214.6719,654.6563 214.8594,654.5469 Q215.0469,654.4375 215.2656,654.4375 Q215.6406,654.4375 215.875,654.6953 Q216.1094,654.9531 216.1094,655.5625 L216.1094,657.0156 Q216.1094,657.625 215.875,657.8906 Q215.6406,658.1563 215.2656,658.1563 Q214.9219,658.1563 214.7188,657.9531 Q214.5156,657.7656 214.4063,657.25 Q214.3594,656.8906 214.1719,656.7031 Q213.8438,656.3281 213.2344,656.1094 Q212.625,655.8906 212,655.8906 Q211.2344,655.8906 210.6016,656.2188 Q209.9688,656.5469 209.4766,657.2969 Q208.9844,658.0469 208.9844,659.0781 L208.9844,660.1719 Q208.9844,661.4063 209.875,662.2266 Q210.7656,663.0469 212.3594,663.0469 Q213.2969,663.0469 213.9531,662.7969 Q214.3438,662.6406 214.7656,662.2031 Q215.0313,661.9375 215.1797,661.8594 Q215.3281,661.7813 215.5313,661.7813 Q215.8594,661.7813 216.1172,662.0391 Q216.375,662.2969 216.375,662.6406 Q216.375,662.9844 216.0313,663.3906 Q215.5313,663.9688 214.7344,664.2969 Q213.6563,664.75 212.3594,664.75 Q210.8438,664.75 209.6406,664.125 Q208.6563,663.625 207.9688,662.5547 Q207.2813,661.4844 207.2813,660.2031 L207.2813,659.0469 Q207.2813,657.7188 207.8984,656.5703 Q208.5156,655.4219 209.6094,654.8047 Q210.7031,654.1875 211.9375,654.1875 Q212.6719,654.1875 213.3203,654.3516 Q213.9688,654.5156 214.5156,654.875 Z " fill="#000000"/><text fill="#000000" font-family="sans-serif" font-size="14" lengthAdjust="spacing" textLength="55" x="232.25" y="664.7285">Poligono</text><line style="stroke:#181818;stroke-width:0.5;" x1="8" x2="479" y1="675" y2="675"/><line style="stroke:#181818;stroke-width:0.5;" x1="8" x2="479" y1="683" y2="683"/><ellipse cx="18" cy="697.3047" fill="#84BE84" rx="3" ry="3" style="stroke:#038048;stroke-width:1.0;"/><text fill="#000000" font-family="sans-serif" font-size="14" lengthAdjust="spacing" textLength="447" x="27" y="701.5332">Poligono(_paiRef:Objeto, _rotulo:char, pontosPoligono:List&lt;Ponto4D&gt;)</text><rect fill="#F24D5C" height="6" style="stroke:#C82930;stroke-width:1.0;" width="6" x="15" y="711.9141"/><text fill="#000000" font-family="sans-serif" font-size="14" lengthAdjust="spacing" textLength="102" x="27" y="719.1426">Atualizar() : void</text><ellipse cx="18" cy="732.5234" fill="#84BE84" rx="3" ry="3" style="stroke:#038048;stroke-width:1.0;"/><text fill="#000000" font-family="sans-serif" font-size="14" lengthAdjust="spacing" textLength="183" x="27" y="736.752">&#171;override&#187; ToString() : string</text><rect fill="#F24D5C" height="6" style="stroke:#C82930;stroke-width:1.0;" width="6" x="15" y="747.1328"/><text fill="#000000" font-family="sans-serif" font-size="14" lengthAdjust="spacing" textLength="245" x="27" y="754.3613">PtoMaisProx(mouse:Ponto4D) : integer</text><rect fill="#F24D5C" height="6" style="stroke:#C82930;stroke-width:1.0;" width="6" x="15" y="764.7422"/><text fill="#000000" font-family="sans-serif" font-size="14" lengthAdjust="spacing" textLength="305" x="27" y="771.9707">Distancia(pto1:Ponto4D, pto2:Ponto4D) : double</text><ellipse cx="18" cy="785.3516" fill="#84BE84" rx="3" ry="3" style="stroke:#038048;stroke-width:1.0;"/><text fill="#000000" font-family="sans-serif" font-size="14" lengthAdjust="spacing" textLength="314" x="27" y="789.5801">PontosAlterarMaisProximo(mouse:Ponto4D) : void</text><ellipse cx="18" cy="802.9609" fill="#84BE84" rx="3" ry="3" style="stroke:#038048;stroke-width:1.0;"/><text fill="#000000" font-family="sans-serif" font-size="14" lengthAdjust="spacing" textLength="313" x="27" y="807.1895">PontosExcluirMaisProximo(mouse:Ponto4D) : void</text><ellipse cx="18" cy="820.5703" fill="#84BE84" rx="3" ry="3" style="stroke:#038048;stroke-width:1.0;"/><text fill="#000000" font-family="sans-serif" font-size="14" lengthAdjust="spacing" textLength="143" x="27" y="824.7988">AlterarPrimitiva() : void</text></g><!--class Objeto--><g id="elem_Objeto"><rect codeLine="1" fill="#F1F1F1" height="576.2813" id="Objeto" rx="2.5" ry="2.5" style="stroke:#181818;stroke-width:0.5;" width="413" x="367" y="7"/><ellipse cx="548.25" cy="23" fill="#ADD1B2" rx="11" ry="11" style="stroke:#181818;stroke-width:1.0;"/><path d="M551.0156,18.875 Q551.1719,18.6563 551.3594,18.5469 Q551.5469,18.4375 551.7656,18.4375 Q552.1406,18.4375 552.375,18.6953 Q552.6094,18.9531 552.6094,19.5625 L552.6094,21.0156 Q552.6094,21.625 552.375,21.8906 Q552.1406,22.1563 551.7656,22.1563 Q551.4219,22.1563 551.2188,21.9531 Q551.0156,21.7656 550.9063,21.25 Q550.8594,20.8906 550.6719,20.7031 Q550.3438,20.3281 549.7344,20.1094 Q549.125,19.8906 548.5,19.8906 Q547.7344,19.8906 547.1016,20.2188 Q546.4688,20.5469 545.9766,21.2969 Q545.4844,22.0469 545.4844,23.0781 L545.4844,24.1719 Q545.4844,25.4063 546.375,26.2266 Q547.2656,27.0469 548.8594,27.0469 Q549.7969,27.0469 550.4531,26.7969 Q550.8438,26.6406 551.2656,26.2031 Q551.5313,25.9375 551.6797,25.8594 Q551.8281,25.7813 552.0313,25.7813 Q552.3594,25.7813 552.6172,26.0391 Q552.875,26.2969 552.875,26.6406 Q552.875,26.9844 552.5313,27.3906 Q552.0313,27.9688 551.2344,28.2969 Q550.1563,28.75 548.8594,28.75 Q547.3438,28.75 546.1406,28.125 Q545.1563,27.625 544.4688,26.5547 Q543.7813,25.4844 543.7813,24.2031 L543.7813,23.0469 Q543.7813,21.7188 544.3984,20.5703 Q545.0156,19.4219 546.1094,18.8047 Q547.2031,18.1875 548.4375,18.1875 Q549.1719,18.1875 549.8203,18.3516 Q550.4688,18.5156 551.0156,18.875 Z " fill="#000000"/><text fill="#000000" font-family="sans-serif" font-size="14" lengthAdjust="spacing" textLength="42" x="568.75" y="28.7285">Objeto</text><line style="stroke:#181818;stroke-width:0.5;" x1="368" x2="779" y1="39" y2="39"/><rect fill="none" height="6" style="stroke:#C82930;stroke-width:1.0;" width="6" x="375" y="50.3047"/><text fill="#000000" font-family="sans-serif" font-size="14" lengthAdjust="spacing" textLength="146" x="387" y="57.5332">&#171;readonly&#187; Char rotulo</text><ellipse cx="378" cy="70.9141" fill="none" rx="3" ry="3" style="stroke:#038048;stroke-width:1.0;"/><text fill="#000000" font-family="sans-serif" font-size="14" lengthAdjust="spacing" textLength="87" x="387" y="75.1426">Objeto paiRef</text><rect fill="none" height="6" style="stroke:#C82930;stroke-width:1.0;" width="6" x="375" y="85.5234"/><text fill="#000000" font-family="sans-serif" font-size="14" lengthAdjust="spacing" textLength="144" x="387" y="92.752">int _vertexBufferObject</text><rect fill="none" height="6" style="stroke:#C82930;stroke-width:1.0;" width="6" x="375" y="103.1328"/><text fill="#000000" font-family="sans-serif" font-size="14" lengthAdjust="spacing" textLength="140" x="387" y="110.3613">int _vertexArrayObject</text><ellipse cx="378" cy="123.7422" fill="none" rx="3" ry="3" style="stroke:#038048;stroke-width:1.0;"/><text fill="#000000" font-family="sans-serif" font-size="14" lengthAdjust="spacing" textLength="231" x="387" y="127.9707">PrimitivaTamanho : float &#171;get&#187; &#171;set&#187;</text><ellipse cx="378" cy="141.3516" fill="none" rx="3" ry="3" style="stroke:#038048;stroke-width:1.0;"/><text fill="#000000" font-family="sans-serif" font-size="14" lengthAdjust="spacing" textLength="201" x="387" y="145.5801">PontosListaTamanho : int &#171;get&#187;</text><line style="stroke:#181818;stroke-width:0.5;" x1="368" x2="779" y1="152.6563" y2="152.6563"/><ellipse cx="378" cy="166.9609" fill="#84BE84" rx="3" ry="3" style="stroke:#038048;stroke-width:1.0;"/><text fill="#000000" font-family="sans-serif" font-size="14" lengthAdjust="spacing" textLength="221" x="387" y="171.1895">TrocaEixoRotacao(eixo:char) : void</text><ellipse cx="378" cy="184.5703" fill="#84BE84" rx="3" ry="3" style="stroke:#038048;stroke-width:1.0;"/><text fill="#000000" font-family="sans-serif" font-size="14" lengthAdjust="spacing" textLength="85" x="387" y="188.7988">Bbox() : BBox</text><ellipse cx="378" cy="202.1797" fill="#84BE84" rx="3" ry="3" style="stroke:#038048;stroke-width:1.0;"/><text fill="#000000" font-family="sans-serif" font-size="14" lengthAdjust="spacing" textLength="355" x="387" y="206.4082">Objeto(_paiRef:Objeto, _rotulo:char, objetoFilho:Objeto)</text><rect fill="#F24D5C" height="6" style="stroke:#C82930;stroke-width:1.0;" width="6" x="375" y="216.7891"/><text fill="#000000" font-family="sans-serif" font-size="14" lengthAdjust="spacing" textLength="227" x="387" y="224.0176">ObjetoAdicionar(objetoFilho:Objeto)</text><ellipse cx="378" cy="237.3984" fill="#84BE84" rx="3" ry="3" style="stroke:#038048;stroke-width:1.0;"/><text fill="#000000" font-family="sans-serif" font-size="14" lengthAdjust="spacing" textLength="144" x="387" y="241.627">ObjetoAtualizar() : void</text><ellipse cx="378" cy="255.0078" fill="#84BE84" rx="3" ry="3" style="stroke:#038048;stroke-width:1.0;"/><text fill="#000000" font-family="sans-serif" font-size="14" lengthAdjust="spacing" textLength="301" x="387" y="259.2363">Desenhar(matrizGrafo:Transformacao4D) : void</text><ellipse cx="378" cy="272.6172" fill="#84BE84" rx="3" ry="3" style="stroke:#038048;stroke-width:1.0;"/><text fill="#000000" font-family="sans-serif" font-size="14" lengthAdjust="spacing" textLength="210" x="387" y="276.8457">FilhoAdicionar(filho:Objeto) : void</text><ellipse cx="378" cy="290.2266" fill="#84BE84" rx="3" ry="3" style="stroke:#038048;stroke-width:1.0;"/><text fill="#000000" font-family="sans-serif" font-size="14" lengthAdjust="spacing" textLength="162" x="387" y="294.4551">PontosId(id:int) : Ponto4D</text><ellipse cx="378" cy="307.8359" fill="#84BE84" rx="3" ry="3" style="stroke:#038048;stroke-width:1.0;"/><text fill="#000000" font-family="sans-serif" font-size="14" lengthAdjust="spacing" textLength="230" x="387" y="312.0645">PontosAdicionar(pto:Ponto4D) : void</text><ellipse cx="378" cy="325.4453" fill="#84BE84" rx="3" ry="3" style="stroke:#038048;stroke-width:1.0;"/><text fill="#000000" font-family="sans-serif" font-size="14" lengthAdjust="spacing" textLength="289" x="387" y="329.6738">PontosAlterar(pto:Ponto4D, posicao:int) : void</text><ellipse cx="378" cy="343.0547" fill="#84BE84" rx="3" ry="3" style="stroke:#038048;stroke-width:1.0;"/><text fill="#000000" font-family="sans-serif" font-size="14" lengthAdjust="spacing" textLength="135" x="387" y="347.2832">PontosLimpar() : void</text><ellipse cx="378" cy="360.6641" fill="#84BE84" rx="3" ry="3" style="stroke:#038048;stroke-width:1.0;"/><text fill="#000000" font-family="sans-serif" font-size="14" lengthAdjust="spacing" textLength="246" x="387" y="364.8926">GrafocenaBusca(_rotulo:char) : Objeto</text><ellipse cx="378" cy="378.2734" fill="#84BE84" rx="3" ry="3" style="stroke:#038048;stroke-width:1.0;"/><text fill="#000000" font-family="sans-serif" font-size="14" lengthAdjust="spacing" textLength="337" x="387" y="382.502">GrafocenaBuscaProximo(objetoAtual:Objeto) : Objeto</text><ellipse cx="378" cy="395.8828" fill="#84BE84" rx="3" ry="3" style="stroke:#038048;stroke-width:1.0;"/><text fill="#000000" font-family="sans-serif" font-size="14" lengthAdjust="spacing" textLength="218" x="387" y="400.1113">GrafocenaImprimir(idt:string) : void</text><ellipse cx="378" cy="413.4922" fill="#84BE84" rx="3" ry="3" style="stroke:#038048;stroke-width:1.0;"/><text fill="#000000" font-family="sans-serif" font-size="14" lengthAdjust="spacing" textLength="134" x="387" y="417.7207">MatrizImprimir() : void</text><ellipse cx="378" cy="431.1016" fill="#84BE84" rx="3" ry="3" style="stroke:#038048;stroke-width:1.0;"/><text fill="#000000" font-family="sans-serif" font-size="14" lengthAdjust="spacing" textLength="196" x="387" y="435.3301">MatrizAtribuirIdentidade() : void</text><ellipse cx="378" cy="448.7109" fill="#84BE84" rx="3" ry="3" style="stroke:#038048;stroke-width:1.0;"/><text fill="#000000" font-family="sans-serif" font-size="14" lengthAdjust="spacing" textLength="369" x="387" y="452.9395">MatrizTranslacaoXYZ(tx:double, ty:double, tz:double) : void</text><ellipse cx="378" cy="466.3203" fill="#84BE84" rx="3" ry="3" style="stroke:#038048;stroke-width:1.0;"/><text fill="#000000" font-family="sans-serif" font-size="14" lengthAdjust="spacing" textLength="355" x="387" y="470.5488">MatrizEscalaXYZ(Sx:double, Sy:double, Sz:double) : void</text><ellipse cx="378" cy="483.9297" fill="#84BE84" rx="3" ry="3" style="stroke:#038048;stroke-width:1.0;"/><text fill="#000000" font-family="sans-serif" font-size="14" lengthAdjust="spacing" textLength="387" x="387" y="488.1582">MatrizEscalaXYZBBox(Sx:double, Sy:double, Sz:double) : void</text><ellipse cx="378" cy="501.5391" fill="#84BE84" rx="3" ry="3" style="stroke:#038048;stroke-width:1.0;"/><text fill="#000000" font-family="sans-serif" font-size="14" lengthAdjust="spacing" textLength="254" x="387" y="505.7676">MatrizRotacaoEixo(angulo:double) : void</text><ellipse cx="378" cy="519.1484" fill="#84BE84" rx="3" ry="3" style="stroke:#038048;stroke-width:1.0;"/><text fill="#000000" font-family="sans-serif" font-size="14" lengthAdjust="spacing" textLength="228" x="387" y="523.377">MatrizRotacao(angulo:double) : void</text><ellipse cx="378" cy="536.7578" fill="#84BE84" rx="3" ry="3" style="stroke:#038048;stroke-width:1.0;"/><text fill="#000000" font-family="sans-serif" font-size="14" lengthAdjust="spacing" textLength="268" x="387" y="540.9863">MatrizRotacaoZBBox(angulo:double) : void</text><ellipse cx="378" cy="554.3672" fill="#84BE84" rx="3" ry="3" style="stroke:#038048;stroke-width:1.0;"/><text fill="#000000" font-family="sans-serif" font-size="14" lengthAdjust="spacing" textLength="111" x="387" y="558.5957">OnUnload() : void</text><ellipse cx="378" cy="571.9766" fill="#84BE84" rx="3" ry="3" style="stroke:#038048;stroke-width:1.0;"/><text fill="#000000" font-family="sans-serif" font-size="14" lengthAdjust="spacing" textLength="160" x="387" y="576.2051">ImprimeToString() : string</text></g><!--class Mundo--><g id="elem_Mundo"><rect codeLine="1" fill="#F1F1F1" height="188.875" id="Mundo" rx="2.5" ry="2.5" style="stroke:#181818;stroke-width:0.5;" width="645" x="781" y="643"/><ellipse cx="1077.75" cy="659" fill="#ADD1B2" rx="11" ry="11" style="stroke:#181818;stroke-width:1.0;"/><path d="M1080.5156,654.875 Q1080.6719,654.6563 1080.8594,654.5469 Q1081.0469,654.4375 1081.2656,654.4375 Q1081.6406,654.4375 1081.875,654.6953 Q1082.1094,654.9531 1082.1094,655.5625 L1082.1094,657.0156 Q1082.1094,657.625 1081.875,657.8906 Q1081.6406,658.1563 1081.2656,658.1563 Q1080.9219,658.1563 1080.7188,657.9531 Q1080.5156,657.7656 1080.4063,657.25 Q1080.3594,656.8906 1080.1719,656.7031 Q1079.8438,656.3281 1079.2344,656.1094 Q1078.625,655.8906 1078,655.8906 Q1077.2344,655.8906 1076.6016,656.2188 Q1075.9688,656.5469 1075.4766,657.2969 Q1074.9844,658.0469 1074.9844,659.0781 L1074.9844,660.1719 Q1074.9844,661.4063 1075.875,662.2266 Q1076.7656,663.0469 1078.3594,663.0469 Q1079.2969,663.0469 1079.9531,662.7969 Q1080.3438,662.6406 1080.7656,662.2031 Q1081.0313,661.9375 1081.1797,661.8594 Q1081.3281,661.7813 1081.5313,661.7813 Q1081.8594,661.7813 1082.1172,662.0391 Q1082.375,662.2969 1082.375,662.6406 Q1082.375,662.9844 1082.0313,663.3906 Q1081.5313,663.9688 1080.7344,664.2969 Q1079.6563,664.75 1078.3594,664.75 Q1076.8438,664.75 1075.6406,664.125 Q1074.6563,663.625 1073.9688,662.5547 Q1073.2813,661.4844 1073.2813,660.2031 L1073.2813,659.0469 Q1073.2813,657.7188 1073.8984,656.5703 Q1074.5156,655.4219 1075.6094,654.8047 Q1076.7031,654.1875 1077.9375,654.1875 Q1078.6719,654.1875 1079.3203,654.3516 Q1079.9688,654.5156 1080.5156,654.875 Z " fill="#000000"/><text fill="#000000" font-family="sans-serif" font-size="14" lengthAdjust="spacing" textLength="43" x="1098.25" y="664.7285">Mundo</text><line style="stroke:#181818;stroke-width:0.5;" x1="782" x2="1425" y1="675" y2="675"/><line style="stroke:#181818;stroke-width:0.5;" x1="782" x2="1425" y1="683" y2="683"/><ellipse cx="792" cy="697.3047" fill="#84BE84" rx="3" ry="3" style="stroke:#038048;stroke-width:1.0;"/><text fill="#000000" font-family="sans-serif" font-size="14" lengthAdjust="spacing" textLength="619" x="801" y="701.5332">Mundo(gameWindowSettings:GameWindowSettings, nativeWindowSettings:NativeWindowSettings)</text><ellipse cx="792" cy="714.9141" fill="#84BE84" rx="3" ry="3" style="stroke:#038048;stroke-width:1.0;"/><text fill="#000000" font-family="sans-serif" font-size="14" lengthAdjust="spacing" textLength="171" x="801" y="719.1426">&#171;override&#187; OnLoad() : void</text><ellipse cx="792" cy="732.5234" fill="#84BE84" rx="3" ry="3" style="stroke:#038048;stroke-width:1.0;"/><text fill="#000000" font-family="sans-serif" font-size="14" lengthAdjust="spacing" textLength="345" x="801" y="736.752">&#171;override&#187; OnRenderFrame(e:FrameEventArgs) : void</text><ellipse cx="792" cy="750.1328" fill="#84BE84" rx="3" ry="3" style="stroke:#038048;stroke-width:1.0;"/><text fill="#000000" font-family="sans-serif" font-size="14" lengthAdjust="spacing" textLength="343" x="801" y="754.3613">&#171;override&#187; OnUpdateFrame(e:FrameEventArgs) : void</text><ellipse cx="792" cy="767.7422" fill="#84BE84" rx="3" ry="3" style="stroke:#038048;stroke-width:1.0;"/><text fill="#000000" font-family="sans-serif" font-size="14" lengthAdjust="spacing" textLength="304" x="801" y="771.9707">&#171;override&#187; OnResize(e:ResizeEventArgs ) : void</text><ellipse cx="792" cy="785.3516" fill="#84BE84" rx="3" ry="3" style="stroke:#038048;stroke-width:1.0;"/><text fill="#000000" font-family="sans-serif" font-size="14" lengthAdjust="spacing" textLength="183" x="801" y="789.5801">&#171;override&#187; OnUnload() : void</text><rect fill="#F24D5C" height="6" style="stroke:#C82930;stroke-width:1.0;" width="6" x="789" y="799.9609"/><text fill="#000000" font-family="sans-serif" font-size="14" lengthAdjust="spacing" textLength="135" x="801" y="807.1895">Gizmo_Sru3D() : void</text><rect fill="#F24D5C" height="6" style="stroke:#C82930;stroke-width:1.0;" width="6" x="789" y="817.5703"/><text fill="#000000" font-family="sans-serif" font-size="14" lengthAdjust="spacing" textLength="127" x="801" y="824.7988">Gizmo_BBox() : void</text></g><!--class GameWindow--><g id="elem_GameWindow"><rect fill="#F1F1F1" height="48" id="GameWindow" rx="2.5" ry="2.5" style="stroke:#181818;stroke-width:0.5;" width="119" x="1044" y="271"/><ellipse cx="1059" cy="287" fill="#ADD1B2" rx="11" ry="11" style="stroke:#181818;stroke-width:1.0;"/><path d="M1061.7656,282.875 Q1061.9219,282.6563 1062.1094,282.5469 Q1062.2969,282.4375 1062.5156,282.4375 Q1062.8906,282.4375 1063.125,282.6953 Q1063.3594,282.9531 1063.3594,283.5625 L1063.3594,285.0156 Q1063.3594,285.625 1063.125,285.8906 Q1062.8906,286.1563 1062.5156,286.1563 Q1062.1719,286.1563 1061.9688,285.9531 Q1061.7656,285.7656 1061.6563,285.25 Q1061.6094,284.8906 1061.4219,284.7031 Q1061.0938,284.3281 1060.4844,284.1094 Q1059.875,283.8906 1059.25,283.8906 Q1058.4844,283.8906 1057.8516,284.2188 Q1057.2188,284.5469 1056.7266,285.2969 Q1056.2344,286.0469 1056.2344,287.0781 L1056.2344,288.1719 Q1056.2344,289.4063 1057.125,290.2266 Q1058.0156,291.0469 1059.6094,291.0469 Q1060.5469,291.0469 1061.2031,290.7969 Q1061.5938,290.6406 1062.0156,290.2031 Q1062.2813,289.9375 1062.4297,289.8594 Q1062.5781,289.7813 1062.7813,289.7813 Q1063.1094,289.7813 1063.3672,290.0391 Q1063.625,290.2969 1063.625,290.6406 Q1063.625,290.9844 1063.2813,291.3906 Q1062.7813,291.9688 1061.9844,292.2969 Q1060.9063,292.75 1059.6094,292.75 Q1058.0938,292.75 1056.8906,292.125 Q1055.9063,291.625 1055.2188,290.5547 Q1054.5313,289.4844 1054.5313,288.2031 L1054.5313,287.0469 Q1054.5313,285.7188 1055.1484,284.5703 Q1055.7656,283.4219 1056.8594,282.8047 Q1057.9531,282.1875 1059.1875,282.1875 Q1059.9219,282.1875 1060.5703,282.3516 Q1061.2188,282.5156 1061.7656,282.875 Z " fill="#000000"/><text fill="#000000" font-family="sans-serif" font-size="14" lengthAdjust="spacing" textLength="87" x="1073" y="292.7285">GameWindow</text><line style="stroke:#181818;stroke-width:0.5;" x1="1045" x2="1162" y1="303" y2="303"/><line style="stroke:#181818;stroke-width:0.5;" x1="1045" x2="1162" y1="311" y2="311"/></g><!--class PrimitiveType--><g id="elem_PrimitiveType"><rect fill="#F1F1F1" height="48" id="PrimitiveType" rx="2.5" ry="2.5" style="stroke:#181818;stroke-width:0.5;" width="117" x="515" y="713.5"/><ellipse cx="530" cy="729.5" fill="#ADD1B2" rx="11" ry="11" style="stroke:#181818;stroke-width:1.0;"/><path d="M532.7656,725.375 Q532.9219,725.1563 533.1094,725.0469 Q533.2969,724.9375 533.5156,724.9375 Q533.8906,724.9375 534.125,725.1953 Q534.3594,725.4531 534.3594,726.0625 L534.3594,727.5156 Q534.3594,728.125 534.125,728.3906 Q533.8906,728.6563 533.5156,728.6563 Q533.1719,728.6563 532.9688,728.4531 Q532.7656,728.2656 532.6563,727.75 Q532.6094,727.3906 532.4219,727.2031 Q532.0938,726.8281 531.4844,726.6094 Q530.875,726.3906 530.25,726.3906 Q529.4844,726.3906 528.8516,726.7188 Q528.2188,727.0469 527.7266,727.7969 Q527.2344,728.5469 527.2344,729.5781 L527.2344,730.6719 Q527.2344,731.9063 528.125,732.7266 Q529.0156,733.5469 530.6094,733.5469 Q531.5469,733.5469 532.2031,733.2969 Q532.5938,733.1406 533.0156,732.7031 Q533.2813,732.4375 533.4297,732.3594 Q533.5781,732.2813 533.7813,732.2813 Q534.1094,732.2813 534.3672,732.5391 Q534.625,732.7969 534.625,733.1406 Q534.625,733.4844 534.2813,733.8906 Q533.7813,734.4688 532.9844,734.7969 Q531.9063,735.25 530.6094,735.25 Q529.0938,735.25 527.8906,734.625 Q526.9063,734.125 526.2188,733.0547 Q525.5313,731.9844 525.5313,730.7031 L525.5313,729.5469 Q525.5313,728.2188 526.1484,727.0703 Q526.7656,725.9219 527.8594,725.3047 Q528.9531,724.6875 530.1875,724.6875 Q530.9219,724.6875 531.5703,724.8516 Q532.2188,725.0156 532.7656,725.375 Z " fill="#000000"/><text fill="#000000" font-family="sans-serif" font-size="14" lengthAdjust="spacing" textLength="85" x="544" y="735.2285">PrimitiveType</text><line style="stroke:#181818;stroke-width:0.5;" x1="516" x2="631" y1="745.5" y2="745.5"/><line style="stroke:#181818;stroke-width:0.5;" x1="516" x2="631" y1="753.5" y2="753.5"/></g><!--class Shader--><g id="elem_Shader"><rect fill="#F1F1F1" height="48" id="Shader" rx="2.5" ry="2.5" style="stroke:#181818;stroke-width:0.5;" width="78" x="667.5" y="713.5"/><ellipse cx="682.5" cy="729.5" fill="#ADD1B2" rx="11" ry="11" style="stroke:#181818;stroke-width:1.0;"/><path d="M685.2656,725.375 Q685.4219,725.1563 685.6094,725.0469 Q685.7969,724.9375 686.0156,724.9375 Q686.3906,724.9375 686.625,725.1953 Q686.8594,725.4531 686.8594,726.0625 L686.8594,727.5156 Q686.8594,728.125 686.625,728.3906 Q686.3906,728.6563 686.0156,728.6563 Q685.6719,728.6563 685.4688,728.4531 Q685.2656,728.2656 685.1563,727.75 Q685.1094,727.3906 684.9219,727.2031 Q684.5938,726.8281 683.9844,726.6094 Q683.375,726.3906 682.75,726.3906 Q681.9844,726.3906 681.3516,726.7188 Q680.7188,727.0469 680.2266,727.7969 Q679.7344,728.5469 679.7344,729.5781 L679.7344,730.6719 Q679.7344,731.9063 680.625,732.7266 Q681.5156,733.5469 683.1094,733.5469 Q684.0469,733.5469 684.7031,733.2969 Q685.0938,733.1406 685.5156,732.7031 Q685.7813,732.4375 685.9297,732.3594 Q686.0781,732.2813 686.2813,732.2813 Q686.6094,732.2813 686.8672,732.5391 Q687.125,732.7969 687.125,733.1406 Q687.125,733.4844 686.7813,733.8906 Q686.2813,734.4688 685.4844,734.7969 Q684.4063,735.25 683.1094,735.25 Q681.5938,735.25 680.3906,734.625 Q679.4063,734.125 678.7188,733.0547 Q678.0313,731.9844 678.0313,730.7031 L678.0313,729.5469 Q678.0313,728.2188 678.6484,727.0703 Q679.2656,725.9219 680.3594,725.3047 Q681.4531,724.6875 682.6875,724.6875 Q683.4219,724.6875 684.0703,724.8516 Q684.7188,725.0156 685.2656,725.375 Z " fill="#000000"/><text fill="#000000" font-family="sans-serif" font-size="14" lengthAdjust="spacing" textLength="46" x="696.5" y="735.2285">Shader</text><line style="stroke:#181818;stroke-width:0.5;" x1="668.5" x2="744.5" y1="745.5" y2="745.5"/><line style="stroke:#181818;stroke-width:0.5;" x1="668.5" x2="744.5" y1="753.5" y2="753.5"/></g><!--class Program--><g id="elem_Program"><rect codeLine="1" fill="#F1F1F1" height="58.7031" id="Program" rx="2.5" ry="2.5" style="stroke:#181818;stroke-width:0.5;" width="86" x="1198.5" y="265.5"/><ellipse cx="1213.5" cy="286.8516" fill="#ADD1B2" rx="11" ry="11" style="stroke:#181818;stroke-width:1.0;"/><path d="M1216.2656,282.7266 Q1216.4219,282.5078 1216.6094,282.3984 Q1216.7969,282.2891 1217.0156,282.2891 Q1217.3906,282.2891 1217.625,282.5469 Q1217.8594,282.8047 1217.8594,283.4141 L1217.8594,284.8672 Q1217.8594,285.4766 1217.625,285.7422 Q1217.3906,286.0078 1217.0156,286.0078 Q1216.6719,286.0078 1216.4688,285.8047 Q1216.2656,285.6172 1216.1563,285.1016 Q1216.1094,284.7422 1215.9219,284.5547 Q1215.5938,284.1797 1214.9844,283.9609 Q1214.375,283.7422 1213.75,283.7422 Q1212.9844,283.7422 1212.3516,284.0703 Q1211.7188,284.3984 1211.2266,285.1484 Q1210.7344,285.8984 1210.7344,286.9297 L1210.7344,288.0234 Q1210.7344,289.2578 1211.625,290.0781 Q1212.5156,290.8984 1214.1094,290.8984 Q1215.0469,290.8984 1215.7031,290.6484 Q1216.0938,290.4922 1216.5156,290.0547 Q1216.7813,289.7891 1216.9297,289.7109 Q1217.0781,289.6328 1217.2813,289.6328 Q1217.6094,289.6328 1217.8672,289.8906 Q1218.125,290.1484 1218.125,290.4922 Q1218.125,290.8359 1217.7813,291.2422 Q1217.2813,291.8203 1216.4844,292.1484 Q1215.4063,292.6016 1214.1094,292.6016 Q1212.5938,292.6016 1211.3906,291.9766 Q1210.4063,291.4766 1209.7188,290.4063 Q1209.0313,289.3359 1209.0313,288.0547 L1209.0313,286.8984 Q1209.0313,285.5703 1209.6484,284.4219 Q1210.2656,283.2734 1211.3594,282.6563 Q1212.4531,282.0391 1213.6875,282.0391 Q1214.4219,282.0391 1215.0703,282.2031 Q1215.7188,282.3672 1216.2656,282.7266 Z " fill="#000000"/><text fill="#000000" font-family="sans-serif" font-size="12" font-style="italic" lengthAdjust="spacing" textLength="42" x="1233.5" y="282.957">&#171;static&#187;</text><text fill="#000000" font-family="sans-serif" font-size="14" lengthAdjust="spacing" textLength="54" x="1227.5" y="300.127">Program</text><line style="stroke:#181818;stroke-width:0.5;" x1="1199.5" x2="1283.5" y1="308.2031" y2="308.2031"/><line style="stroke:#181818;stroke-width:0.5;" x1="1199.5" x2="1283.5" y1="316.2031" y2="316.2031"/></g><!--reverse link Objeto to Poligono--><g id="link_Objeto_Poligono"><path codeLine="12" d="M356.0555,586.2541 C337.2155,611.3941 329.96,621.1 313.74,642.74 " fill="none" id="Objeto-backto-Poligono" style="stroke:#181818;stroke-width:1.0;"/><polygon fill="none" points="366.85,571.85,351.2541,582.656,360.8569,589.8523,366.85,571.85" style="stroke:#181818;stroke-width:1.0;"/></g><!--reverse link GameWindow to Mundo--><g id="link_GameWindow_Mundo"><path codeLine="11" d="M1103.5,337.06 C1103.5,396.37 1103.5,538.77 1103.5,642.59 " fill="none" id="GameWindow-backto-Mundo" style="stroke:#181818;stroke-width:1.0;"/><polygon fill="none" points="1103.5,319.06,1097.5,337.06,1109.5,337.06,1103.5,319.06" style="stroke:#181818;stroke-width:1.0;"/></g><!--link Objeto to PrimitiveType--><g id="link_Objeto_PrimitiveType"><path codeLine="33" d="M573.5,583.05 C573.5,637.43 573.5,679.81 573.5,707.1 " fill="none" id="Objeto-to-PrimitiveType" style="stroke:#181818;stroke-width:1.0;"/><polygon fill="#181818" points="573.5,713.1,577.5,704.1,573.5,708.1,569.5,704.1,573.5,713.1" style="stroke:#181818;stroke-width:1.0;"/><text fill="#000000" font-family="sans-serif" font-size="13" lengthAdjust="spacing" textLength="73" x="491.6031" y="702.7405">PrimitivaTipo</text></g><!--link Objeto to Shader--><g id="link_Objeto_Shader"><path codeLine="34" d="M660.17,583.05 C676.59,637.43 689.4538,680.0667 697.7038,707.3567 " fill="none" id="Objeto-to-Shader" style="stroke:#181818;stroke-width:1.0;"/><polygon fill="#181818" points="699.44,713.1,700.6645,703.3276,697.9931,708.3139,693.0068,705.6426,699.44,713.1" style="stroke:#181818;stroke-width:1.0;"/><text fill="#000000" font-family="sans-serif" font-size="13" lengthAdjust="spacing" textLength="79" x="640.0556" y="702.5853">ShaderObjeto</text></g><!--SRC=[KypCIyufJKbLqDCFoC_9JC_FozShACtDuL94IFYMvgLWYledPQMMO0e75EMd5oNcGiJL5P1ayfEoz5rIaqhJzVDIIopq3FJr_5n3dFEBKXqB2dJ2KekAC_FpRCk04dgEnSMfkKavbOub9KMPIQKbgSN46EVi7kzd7EzQaPfRa9CFDyCpBmtYI000]--></g></svg>