<?xml version="1.0" encoding="us-ascii" standalone="no"?><svg xmlns="http://www.w3.org/2000/svg" xmlns:xlink="http://www.w3.org/1999/xlink" contentStyleType="text/css" height="310px" preserveAspectRatio="none" style="width:659px;height:310px;background:#FFFFFF;" version="1.1" viewBox="0 0 659 310" width="659px" zoomAndPan="magnify"><defs/><g><!--class Mundo--><g id="elem_Mundo"><rect codeLine="1" fill="#F1F1F1" height="188.875" id="Mundo" rx="2.5" ry="2.5" style="stroke:#181818;stroke-width:0.5;" width="645" x="7" y="115"/><ellipse cx="303.75" cy="131" fill="#ADD1B2" rx="11" ry="11" style="stroke:#181818;stroke-width:1.0;"/><path d="M306.5156,126.875 Q306.6719,126.6563 306.8594,126.5469 Q307.0469,126.4375 307.2656,126.4375 Q307.6406,126.4375 307.875,126.6953 Q308.1094,126.9531 308.1094,127.5625 L308.1094,129.0156 Q308.1094,129.625 307.875,129.8906 Q307.6406,130.1563 307.2656,130.1563 Q306.9219,130.1563 306.7188,129.9531 Q306.5156,129.7656 306.4063,129.25 Q306.3594,128.8906 306.1719,128.7031 Q305.8438,128.3281 305.2344,128.1094 Q304.625,127.8906 304,127.8906 Q303.2344,127.8906 302.6016,128.2188 Q301.9688,128.5469 301.4766,129.2969 Q300.9844,130.0469 300.9844,131.0781 L300.9844,132.1719 Q300.9844,133.4063 301.875,134.2266 Q302.7656,135.0469 304.3594,135.0469 Q305.2969,135.0469 305.9531,134.7969 Q306.3438,134.6406 306.7656,134.2031 Q307.0313,133.9375 307.1797,133.8594 Q307.3281,133.7813 307.5313,133.7813 Q307.8594,133.7813 308.1172,134.0391 Q308.375,134.2969 308.375,134.6406 Q308.375,134.9844 308.0313,135.3906 Q307.5313,135.9688 306.7344,136.2969 Q305.6563,136.75 304.3594,136.75 Q302.8438,136.75 301.6406,136.125 Q300.6563,135.625 299.9688,134.5547 Q299.2813,133.4844 299.2813,132.2031 L299.2813,131.0469 Q299.2813,129.7188 299.8984,128.5703 Q300.5156,127.4219 301.6094,126.8047 Q302.7031,126.1875 303.9375,126.1875 Q304.6719,126.1875 305.3203,126.3516 Q305.9688,126.5156 306.5156,126.875 Z " fill="#000000"/><text fill="#000000" font-family="sans-serif" font-size="14" lengthAdjust="spacing" textLength="43" x="324.25" y="136.7285">Mundo</text><line style="stroke:#181818;stroke-width:0.5;" x1="8" x2="651" y1="147" y2="147"/><line style="stroke:#181818;stroke-width:0.5;" x1="8" x2="651" y1="155" y2="155"/><ellipse cx="18" cy="169.3047" fill="#84BE84" rx="3" ry="3" style="stroke:#038048;stroke-width:1.0;"/><text fill="#000000" font-family="sans-serif" font-size="14" lengthAdjust="spacing" textLength="619" x="27" y="173.5332">Mundo(gameWindowSettings:GameWindowSettings, nativeWindowSettings:NativeWindowSettings)</text><ellipse cx="18" cy="186.9141" fill="#84BE84" rx="3" ry="3" style="stroke:#038048;stroke-width:1.0;"/><text fill="#000000" font-family="sans-serif" font-size="14" lengthAdjust="spacing" textLength="171" x="27" y="191.1426">&#171;override&#187; OnLoad() : void</text><ellipse cx="18" cy="204.5234" fill="#84BE84" rx="3" ry="3" style="stroke:#038048;stroke-width:1.0;"/><text fill="#000000" font-family="sans-serif" font-size="14" lengthAdjust="spacing" textLength="345" x="27" y="208.752">&#171;override&#187; OnRenderFrame(e:FrameEventArgs) : void</text><ellipse cx="18" cy="222.1328" fill="#84BE84" rx="3" ry="3" style="stroke:#038048;stroke-width:1.0;"/><text fill="#000000" font-family="sans-serif" font-size="14" lengthAdjust="spacing" textLength="343" x="27" y="226.3613">&#171;override&#187; OnUpdateFrame(e:FrameEventArgs) : void</text><ellipse cx="18" cy="239.7422" fill="#84BE84" rx="3" ry="3" style="stroke:#038048;stroke-width:1.0;"/><text fill="#000000" font-family="sans-serif" font-size="14" lengthAdjust="spacing" textLength="304" x="27" y="243.9707">&#171;override&#187; OnResize(e:ResizeEventArgs ) : void</text><ellipse cx="18" cy="257.3516" fill="#84BE84" rx="3" ry="3" style="stroke:#038048;stroke-width:1.0;"/><text fill="#000000" font-family="sans-serif" font-size="14" lengthAdjust="spacing" textLength="183" x="27" y="261.5801">&#171;override&#187; OnUnload() : void</text><rect fill="#F24D5C" height="6" style="stroke:#C82930;stroke-width:1.0;" width="6" x="15" y="271.9609"/><text fill="#000000" font-family="sans-serif" font-size="14" lengthAdjust="spacing" textLength="135" x="27" y="279.1895">Gizmo_Sru3D() : void</text><rect fill="#F24D5C" height="6" style="stroke:#C82930;stroke-width:1.0;" width="6" x="15" y="289.5703"/><text fill="#000000" font-family="sans-serif" font-size="14" lengthAdjust="spacing" textLength="127" x="27" y="296.7988">Gizmo_BBox() : void</text></g><!--class GameWindow--><g id="elem_GameWindow"><rect fill="#F1F1F1" height="48" id="GameWindow" rx="2.5" ry="2.5" style="stroke:#181818;stroke-width:0.5;" width="119" x="270" y="7"/><ellipse cx="285" cy="23" fill="#ADD1B2" rx="11" ry="11" style="stroke:#181818;stroke-width:1.0;"/><path d="M287.7656,18.875 Q287.9219,18.6563 288.1094,18.5469 Q288.2969,18.4375 288.5156,18.4375 Q288.8906,18.4375 289.125,18.6953 Q289.3594,18.9531 289.3594,19.5625 L289.3594,21.0156 Q289.3594,21.625 289.125,21.8906 Q288.8906,22.1563 288.5156,22.1563 Q288.1719,22.1563 287.9688,21.9531 Q287.7656,21.7656 287.6563,21.25 Q287.6094,20.8906 287.4219,20.7031 Q287.0938,20.3281 286.4844,20.1094 Q285.875,19.8906 285.25,19.8906 Q284.4844,19.8906 283.8516,20.2188 Q283.2188,20.5469 282.7266,21.2969 Q282.2344,22.0469 282.2344,23.0781 L282.2344,24.1719 Q282.2344,25.4063 283.125,26.2266 Q284.0156,27.0469 285.6094,27.0469 Q286.5469,27.0469 287.2031,26.7969 Q287.5938,26.6406 288.0156,26.2031 Q288.2813,25.9375 288.4297,25.8594 Q288.5781,25.7813 288.7813,25.7813 Q289.1094,25.7813 289.3672,26.0391 Q289.625,26.2969 289.625,26.6406 Q289.625,26.9844 289.2813,27.3906 Q288.7813,27.9688 287.9844,28.2969 Q286.9063,28.75 285.6094,28.75 Q284.0938,28.75 282.8906,28.125 Q281.9063,27.625 281.2188,26.5547 Q280.5313,25.4844 280.5313,24.2031 L280.5313,23.0469 Q280.5313,21.7188 281.1484,20.5703 Q281.7656,19.4219 282.8594,18.8047 Q283.9531,18.1875 285.1875,18.1875 Q285.9219,18.1875 286.5703,18.3516 Q287.2188,18.5156 287.7656,18.875 Z " fill="#000000"/><text fill="#000000" font-family="sans-serif" font-size="14" lengthAdjust="spacing" textLength="87" x="299" y="28.7285">GameWindow</text><line style="stroke:#181818;stroke-width:0.5;" x1="271" x2="388" y1="39" y2="39"/><line style="stroke:#181818;stroke-width:0.5;" x1="271" x2="388" y1="47" y2="47"/></g><!--reverse link GameWindow to Mundo--><g id="link_GameWindow_Mundo"><path codeLine="11" d="M329.5,73.07 C329.5,88.68 329.5,92.43 329.5,114.65 " fill="none" id="GameWindow-backto-Mundo" style="stroke:#181818;stroke-width:1.0;"/><polygon fill="none" points="329.5,55.07,323.5,73.07,335.5,73.07,329.5,55.07" style="stroke:#181818;stroke-width:1.0;"/></g><!--SRC=[Iyv9B2vMy2tDIybNgEPI009j24yZFJ4tDJmJo2eFJYqfoSnBBxPonn3IKSXBBCaiGrVeXqLG4sgwZKr-MMfHKMPAgfsTWd-UJtvYYeQcWfL2MNvc2dObGQbvAQb5RaL0spLIhS2qQrbgNebZ4T1Kl3f32r8IIrB9qHcKMfnP1T84OS1rAH2mC2y7mp-w2kwPLRdvyS55fSOksAMSdF8hu38ANBLSY91MiAdHrOL42G00]--></g></svg>