<?xml version="1.0" encoding="us-ascii" standalone="no"?><svg xmlns="http://www.w3.org/2000/svg" xmlns:xlink="http://www.w3.org/1999/xlink" contentStyleType="text/css" height="698px" preserveAspectRatio="none" style="width:427px;height:698px;background:#FFFFFF;" version="1.1" viewBox="0 0 427 698" width="427px" zoomAndPan="magnify"><defs/><g><!--class Objeto--><g id="elem_Objeto"><rect codeLine="1" fill="#F1F1F1" height="576.2813" id="Objeto" rx="2.5" ry="2.5" style="stroke:#181818;stroke-width:0.5;" width="413" x="7" y="7"/><ellipse cx="188.25" cy="23" fill="#ADD1B2" rx="11" ry="11" style="stroke:#181818;stroke-width:1.0;"/><path d="M191.0156,18.875 Q191.1719,18.6563 191.3594,18.5469 Q191.5469,18.4375 191.7656,18.4375 Q192.1406,18.4375 192.375,18.6953 Q192.6094,18.9531 192.6094,19.5625 L192.6094,21.0156 Q192.6094,21.625 192.375,21.8906 Q192.1406,22.1563 191.7656,22.1563 Q191.4219,22.1563 191.2188,21.9531 Q191.0156,21.7656 190.9063,21.25 Q190.8594,20.8906 190.6719,20.7031 Q190.3438,20.3281 189.7344,20.1094 Q189.125,19.8906 188.5,19.8906 Q187.7344,19.8906 187.1016,20.2188 Q186.4688,20.5469 185.9766,21.2969 Q185.4844,22.0469 185.4844,23.0781 L185.4844,24.1719 Q185.4844,25.4063 186.375,26.2266 Q187.2656,27.0469 188.8594,27.0469 Q189.7969,27.0469 190.4531,26.7969 Q190.8438,26.6406 191.2656,26.2031 Q191.5313,25.9375 191.6797,25.8594 Q191.8281,25.7813 192.0313,25.7813 Q192.3594,25.7813 192.6172,26.0391 Q192.875,26.2969 192.875,26.6406 Q192.875,26.9844 192.5313,27.3906 Q192.0313,27.9688 191.2344,28.2969 Q190.1563,28.75 188.8594,28.75 Q187.3438,28.75 186.1406,28.125 Q185.1563,27.625 184.4688,26.5547 Q183.7813,25.4844 183.7813,24.2031 L183.7813,23.0469 Q183.7813,21.7188 184.3984,20.5703 Q185.0156,19.4219 186.1094,18.8047 Q187.2031,18.1875 188.4375,18.1875 Q189.1719,18.1875 189.8203,18.3516 Q190.4688,18.5156 191.0156,18.875 Z " fill="#000000"/><text fill="#000000" font-family="sans-serif" font-size="14" lengthAdjust="spacing" textLength="42" x="208.75" y="28.7285">Objeto</text><line style="stroke:#181818;stroke-width:0.5;" x1="8" x2="419" y1="39" y2="39"/><rect fill="none" height="6" style="stroke:#C82930;stroke-width:1.0;" width="6" x="15" y="50.3047"/><text fill="#000000" font-family="sans-serif" font-size="14" lengthAdjust="spacing" textLength="146" x="27" y="57.5332">&#171;readonly&#187; Char rotulo</text><ellipse cx="18" cy="70.9141" fill="none" rx="3" ry="3" style="stroke:#038048;stroke-width:1.0;"/><text fill="#000000" font-family="sans-serif" font-size="14" lengthAdjust="spacing" textLength="87" x="27" y="75.1426">Objeto paiRef</text><rect fill="none" height="6" style="stroke:#C82930;stroke-width:1.0;" width="6" x="15" y="85.5234"/><text fill="#000000" font-family="sans-serif" font-size="14" lengthAdjust="spacing" textLength="144" x="27" y="92.752">int _vertexBufferObject</text><rect fill="none" height="6" style="stroke:#C82930;stroke-width:1.0;" width="6" x="15" y="103.1328"/><text fill="#000000" font-family="sans-serif" font-size="14" lengthAdjust="spacing" textLength="140" x="27" y="110.3613">int _vertexArrayObject</text><ellipse cx="18" cy="123.7422" fill="none" rx="3" ry="3" style="stroke:#038048;stroke-width:1.0;"/><text fill="#000000" font-family="sans-serif" font-size="14" lengthAdjust="spacing" textLength="231" x="27" y="127.9707">PrimitivaTamanho : float &#171;get&#187; &#171;set&#187;</text><ellipse cx="18" cy="141.3516" fill="none" rx="3" ry="3" style="stroke:#038048;stroke-width:1.0;"/><text fill="#000000" font-family="sans-serif" font-size="14" lengthAdjust="spacing" textLength="201" x="27" y="145.5801">PontosListaTamanho : int &#171;get&#187;</text><line style="stroke:#181818;stroke-width:0.5;" x1="8" x2="419" y1="152.6563" y2="152.6563"/><ellipse cx="18" cy="166.9609" fill="#84BE84" rx="3" ry="3" style="stroke:#038048;stroke-width:1.0;"/><text fill="#000000" font-family="sans-serif" font-size="14" lengthAdjust="spacing" textLength="221" x="27" y="171.1895">TrocaEixoRotacao(eixo:char) : void</text><ellipse cx="18" cy="184.5703" fill="#84BE84" rx="3" ry="3" style="stroke:#038048;stroke-width:1.0;"/><text fill="#000000" font-family="sans-serif" font-size="14" lengthAdjust="spacing" textLength="85" x="27" y="188.7988">Bbox() : BBox</text><ellipse cx="18" cy="202.1797" fill="#84BE84" rx="3" ry="3" style="stroke:#038048;stroke-width:1.0;"/><text fill="#000000" font-family="sans-serif" font-size="14" lengthAdjust="spacing" textLength="355" x="27" y="206.4082">Objeto(_paiRef:Objeto, _rotulo:char, objetoFilho:Objeto)</text><rect fill="#F24D5C" height="6" style="stroke:#C82930;stroke-width:1.0;" width="6" x="15" y="216.7891"/><text fill="#000000" font-family="sans-serif" font-size="14" lengthAdjust="spacing" textLength="227" x="27" y="224.0176">ObjetoAdicionar(objetoFilho:Objeto)</text><ellipse cx="18" cy="237.3984" fill="#84BE84" rx="3" ry="3" style="stroke:#038048;stroke-width:1.0;"/><text fill="#000000" font-family="sans-serif" font-size="14" lengthAdjust="spacing" textLength="144" x="27" y="241.627">ObjetoAtualizar() : void</text><ellipse cx="18" cy="255.0078" fill="#84BE84" rx="3" ry="3" style="stroke:#038048;stroke-width:1.0;"/><text fill="#000000" font-family="sans-serif" font-size="14" lengthAdjust="spacing" textLength="301" x="27" y="259.2363">Desenhar(matrizGrafo:Transformacao4D) : void</text><ellipse cx="18" cy="272.6172" fill="#84BE84" rx="3" ry="3" style="stroke:#038048;stroke-width:1.0;"/><text fill="#000000" font-family="sans-serif" font-size="14" lengthAdjust="spacing" textLength="210" x="27" y="276.8457">FilhoAdicionar(filho:Objeto) : void</text><ellipse cx="18" cy="290.2266" fill="#84BE84" rx="3" ry="3" style="stroke:#038048;stroke-width:1.0;"/><text fill="#000000" font-family="sans-serif" font-size="14" lengthAdjust="spacing" textLength="162" x="27" y="294.4551">PontosId(id:int) : Ponto4D</text><ellipse cx="18" cy="307.8359" fill="#84BE84" rx="3" ry="3" style="stroke:#038048;stroke-width:1.0;"/><text fill="#000000" font-family="sans-serif" font-size="14" lengthAdjust="spacing" textLength="230" x="27" y="312.0645">PontosAdicionar(pto:Ponto4D) : void</text><ellipse cx="18" cy="325.4453" fill="#84BE84" rx="3" ry="3" style="stroke:#038048;stroke-width:1.0;"/><text fill="#000000" font-family="sans-serif" font-size="14" lengthAdjust="spacing" textLength="289" x="27" y="329.6738">PontosAlterar(pto:Ponto4D, posicao:int) : void</text><ellipse cx="18" cy="343.0547" fill="#84BE84" rx="3" ry="3" style="stroke:#038048;stroke-width:1.0;"/><text fill="#000000" font-family="sans-serif" font-size="14" lengthAdjust="spacing" textLength="135" x="27" y="347.2832">PontosLimpar() : void</text><ellipse cx="18" cy="360.6641" fill="#84BE84" rx="3" ry="3" style="stroke:#038048;stroke-width:1.0;"/><text fill="#000000" font-family="sans-serif" font-size="14" lengthAdjust="spacing" textLength="246" x="27" y="364.8926">GrafocenaBusca(_rotulo:char) : Objeto</text><ellipse cx="18" cy="378.2734" fill="#84BE84" rx="3" ry="3" style="stroke:#038048;stroke-width:1.0;"/><text fill="#000000" font-family="sans-serif" font-size="14" lengthAdjust="spacing" textLength="337" x="27" y="382.502">GrafocenaBuscaProximo(objetoAtual:Objeto) : Objeto</text><ellipse cx="18" cy="395.8828" fill="#84BE84" rx="3" ry="3" style="stroke:#038048;stroke-width:1.0;"/><text fill="#000000" font-family="sans-serif" font-size="14" lengthAdjust="spacing" textLength="218" x="27" y="400.1113">GrafocenaImprimir(idt:string) : void</text><ellipse cx="18" cy="413.4922" fill="#84BE84" rx="3" ry="3" style="stroke:#038048;stroke-width:1.0;"/><text fill="#000000" font-family="sans-serif" font-size="14" lengthAdjust="spacing" textLength="134" x="27" y="417.7207">MatrizImprimir() : void</text><ellipse cx="18" cy="431.1016" fill="#84BE84" rx="3" ry="3" style="stroke:#038048;stroke-width:1.0;"/><text fill="#000000" font-family="sans-serif" font-size="14" lengthAdjust="spacing" textLength="196" x="27" y="435.3301">MatrizAtribuirIdentidade() : void</text><ellipse cx="18" cy="448.7109" fill="#84BE84" rx="3" ry="3" style="stroke:#038048;stroke-width:1.0;"/><text fill="#000000" font-family="sans-serif" font-size="14" lengthAdjust="spacing" textLength="369" x="27" y="452.9395">MatrizTranslacaoXYZ(tx:double, ty:double, tz:double) : void</text><ellipse cx="18" cy="466.3203" fill="#84BE84" rx="3" ry="3" style="stroke:#038048;stroke-width:1.0;"/><text fill="#000000" font-family="sans-serif" font-size="14" lengthAdjust="spacing" textLength="355" x="27" y="470.5488">MatrizEscalaXYZ(Sx:double, Sy:double, Sz:double) : void</text><ellipse cx="18" cy="483.9297" fill="#84BE84" rx="3" ry="3" style="stroke:#038048;stroke-width:1.0;"/><text fill="#000000" font-family="sans-serif" font-size="14" lengthAdjust="spacing" textLength="387" x="27" y="488.1582">MatrizEscalaXYZBBox(Sx:double, Sy:double, Sz:double) : void</text><ellipse cx="18" cy="501.5391" fill="#84BE84" rx="3" ry="3" style="stroke:#038048;stroke-width:1.0;"/><text fill="#000000" font-family="sans-serif" font-size="14" lengthAdjust="spacing" textLength="254" x="27" y="505.7676">MatrizRotacaoEixo(angulo:double) : void</text><ellipse cx="18" cy="519.1484" fill="#84BE84" rx="3" ry="3" style="stroke:#038048;stroke-width:1.0;"/><text fill="#000000" font-family="sans-serif" font-size="14" lengthAdjust="spacing" textLength="228" x="27" y="523.377">MatrizRotacao(angulo:double) : void</text><ellipse cx="18" cy="536.7578" fill="#84BE84" rx="3" ry="3" style="stroke:#038048;stroke-width:1.0;"/><text fill="#000000" font-family="sans-serif" font-size="14" lengthAdjust="spacing" textLength="268" x="27" y="540.9863">MatrizRotacaoZBBox(angulo:double) : void</text><ellipse cx="18" cy="554.3672" fill="#84BE84" rx="3" ry="3" style="stroke:#038048;stroke-width:1.0;"/><text fill="#000000" font-family="sans-serif" font-size="14" lengthAdjust="spacing" textLength="111" x="27" y="558.5957">OnUnload() : void</text><ellipse cx="18" cy="571.9766" fill="#84BE84" rx="3" ry="3" style="stroke:#038048;stroke-width:1.0;"/><text fill="#000000" font-family="sans-serif" font-size="14" lengthAdjust="spacing" textLength="160" x="27" y="576.2051">ImprimeToString() : string</text></g><!--class PrimitiveType--><g id="elem_PrimitiveType"><rect fill="#F1F1F1" height="48" id="PrimitiveType" rx="2.5" ry="2.5" style="stroke:#181818;stroke-width:0.5;" width="117" x="89" y="643"/><ellipse cx="104" cy="659" fill="#ADD1B2" rx="11" ry="11" style="stroke:#181818;stroke-width:1.0;"/><path d="M106.7656,654.875 Q106.9219,654.6563 107.1094,654.5469 Q107.2969,654.4375 107.5156,654.4375 Q107.8906,654.4375 108.125,654.6953 Q108.3594,654.9531 108.3594,655.5625 L108.3594,657.0156 Q108.3594,657.625 108.125,657.8906 Q107.8906,658.1563 107.5156,658.1563 Q107.1719,658.1563 106.9688,657.9531 Q106.7656,657.7656 106.6563,657.25 Q106.6094,656.8906 106.4219,656.7031 Q106.0938,656.3281 105.4844,656.1094 Q104.875,655.8906 104.25,655.8906 Q103.4844,655.8906 102.8516,656.2188 Q102.2188,656.5469 101.7266,657.2969 Q101.2344,658.0469 101.2344,659.0781 L101.2344,660.1719 Q101.2344,661.4063 102.125,662.2266 Q103.0156,663.0469 104.6094,663.0469 Q105.5469,663.0469 106.2031,662.7969 Q106.5938,662.6406 107.0156,662.2031 Q107.2813,661.9375 107.4297,661.8594 Q107.5781,661.7813 107.7813,661.7813 Q108.1094,661.7813 108.3672,662.0391 Q108.625,662.2969 108.625,662.6406 Q108.625,662.9844 108.2813,663.3906 Q107.7813,663.9688 106.9844,664.2969 Q105.9063,664.75 104.6094,664.75 Q103.0938,664.75 101.8906,664.125 Q100.9063,663.625 100.2188,662.5547 Q99.5313,661.4844 99.5313,660.2031 L99.5313,659.0469 Q99.5313,657.7188 100.1484,656.5703 Q100.7656,655.4219 101.8594,654.8047 Q102.9531,654.1875 104.1875,654.1875 Q104.9219,654.1875 105.5703,654.3516 Q106.2188,654.5156 106.7656,654.875 Z " fill="#000000"/><text fill="#000000" font-family="sans-serif" font-size="14" lengthAdjust="spacing" textLength="85" x="118" y="664.7285">PrimitiveType</text><line style="stroke:#181818;stroke-width:0.5;" x1="90" x2="205" y1="675" y2="675"/><line style="stroke:#181818;stroke-width:0.5;" x1="90" x2="205" y1="683" y2="683"/></g><!--class Shader--><g id="elem_Shader"><rect fill="#F1F1F1" height="48" id="Shader" rx="2.5" ry="2.5" style="stroke:#181818;stroke-width:0.5;" width="78" x="241.5" y="643"/><ellipse cx="256.5" cy="659" fill="#ADD1B2" rx="11" ry="11" style="stroke:#181818;stroke-width:1.0;"/><path d="M259.2656,654.875 Q259.4219,654.6563 259.6094,654.5469 Q259.7969,654.4375 260.0156,654.4375 Q260.3906,654.4375 260.625,654.6953 Q260.8594,654.9531 260.8594,655.5625 L260.8594,657.0156 Q260.8594,657.625 260.625,657.8906 Q260.3906,658.1563 260.0156,658.1563 Q259.6719,658.1563 259.4688,657.9531 Q259.2656,657.7656 259.1563,657.25 Q259.1094,656.8906 258.9219,656.7031 Q258.5938,656.3281 257.9844,656.1094 Q257.375,655.8906 256.75,655.8906 Q255.9844,655.8906 255.3516,656.2188 Q254.7188,656.5469 254.2266,657.2969 Q253.7344,658.0469 253.7344,659.0781 L253.7344,660.1719 Q253.7344,661.4063 254.625,662.2266 Q255.5156,663.0469 257.1094,663.0469 Q258.0469,663.0469 258.7031,662.7969 Q259.0938,662.6406 259.5156,662.2031 Q259.7813,661.9375 259.9297,661.8594 Q260.0781,661.7813 260.2813,661.7813 Q260.6094,661.7813 260.8672,662.0391 Q261.125,662.2969 261.125,662.6406 Q261.125,662.9844 260.7813,663.3906 Q260.2813,663.9688 259.4844,664.2969 Q258.4063,664.75 257.1094,664.75 Q255.5938,664.75 254.3906,664.125 Q253.4063,663.625 252.7188,662.5547 Q252.0313,661.4844 252.0313,660.2031 L252.0313,659.0469 Q252.0313,657.7188 252.6484,656.5703 Q253.2656,655.4219 254.3594,654.8047 Q255.4531,654.1875 256.6875,654.1875 Q257.4219,654.1875 258.0703,654.3516 Q258.7188,654.5156 259.2656,654.875 Z " fill="#000000"/><text fill="#000000" font-family="sans-serif" font-size="14" lengthAdjust="spacing" textLength="46" x="270.5" y="664.7285">Shader</text><line style="stroke:#181818;stroke-width:0.5;" x1="242.5" x2="318.5" y1="675" y2="675"/><line style="stroke:#181818;stroke-width:0.5;" x1="242.5" x2="318.5" y1="683" y2="683"/></g><!--link Objeto to PrimitiveType--><g id="link_Objeto_PrimitiveType"><path codeLine="33" d="M162.23,583.43 C157.95,607.43 155.327,622.1638 152.707,636.8038 " fill="none" id="Objeto-to-PrimitiveType" style="stroke:#181818;stroke-width:1.0;"/><polygon fill="#181818" points="151.65,642.71,157.1729,634.5554,152.5308,637.7882,149.298,633.1461,151.65,642.71" style="stroke:#181818;stroke-width:1.0;"/><text fill="#000000" font-family="sans-serif" font-size="13" lengthAdjust="spacing" textLength="73" x="70.3603" y="631.9758">PrimitivaTipo</text></g><!--link Objeto to Shader--><g id="link_Objeto_Shader"><path codeLine="34" d="M265.55,583.43 C269.89,607.43 272.5613,622.1659 275.2113,636.8059 " fill="none" id="Objeto-to-Shader" style="stroke:#181818;stroke-width:1.0;"/><polygon fill="#181818" points="276.28,642.71,278.613,633.1414,275.3894,637.79,270.7409,634.5664,276.28,642.71" style="stroke:#181818;stroke-width:1.0;"/><text fill="#000000" font-family="sans-serif" font-size="13" lengthAdjust="spacing" textLength="79" x="212.1651" y="632.0851">ShaderObjeto</text></g><!--SRC=[dPHDZvim48Rl-HLMJgmskUq9HP6WsLQHjjhLGgMsbsW29d457cIRYAJgVw-_M22XxQev4DlppCSx0yvAa98yxtzGXUJdZEZVagnMWaAEl3olr-J34GGHg9eIhVc-esjWhxJmBemhiZjHeMWRDqL1XO4oTMkDX83pm7XFNWIhc68dIA42VaGIag94KBgC0rMwWjLAclyEHwvGFZ6f1WucWSSzbWhCu96r-8eACi20wdMOQJ5tcZyXouadupssWJcCOsn74eETqnYwxOBiN1zic0L1U_gHbKVqn9tNwtPHpZA674Jm9x9B5Aa6IdRHP5USDs-ef5md2ofGWbq-2IWmJ0LmMQ2eZAw7pPMBpTAdBeP9nwJhv3OFM1xg1XghFNhOZ80-LgqmzCHagAXKL8ov1QbHCbrdb-76wObLzQrmgpIZ7E96PX0C6sz8fsUIVH7OiWfzpsrd1_Ad7RTLRLv2eJkXGgaxpGzNzNos_N_Z9gsHVkmR9hOvvOhbaDDfpiwlDCFx-krxeDemnsPVqWLHvtvvySl928zQPmd6E-czazuxUP-tUU7_AuB_fipd5G0_cCdyctu_wGhx6_xClt1zH-JN3NO3eYacTeZMxEOv-pNpzzPokIRp_j9XDSxVxY2Qdciw0fEZdgDm9tFYThy1]--></g></svg>