<?xml version="1.0" encoding="us-ascii" standalone="no"?><svg xmlns="http://www.w3.org/2000/svg" xmlns:xlink="http://www.w3.org/1999/xlink" contentStyleType="text/css" height="310px" preserveAspectRatio="none" style="width:487px;height:310px;background:#FFFFFF;" version="1.1" viewBox="0 0 487 310" width="487px" zoomAndPan="magnify"><defs/><g><!--class Poligono--><g id="elem_Poligono"><rect codeLine="1" fill="#F1F1F1" height="188.875" id="Poligono" rx="2.5" ry="2.5" style="stroke:#181818;stroke-width:0.5;" width="473" x="7" y="115"/><ellipse cx="211.75" cy="131" fill="#ADD1B2" rx="11" ry="11" style="stroke:#181818;stroke-width:1.0;"/><path d="M214.5156,126.875 Q214.6719,126.6563 214.8594,126.5469 Q215.0469,126.4375 215.2656,126.4375 Q215.6406,126.4375 215.875,126.6953 Q216.1094,126.9531 216.1094,127.5625 L216.1094,129.0156 Q216.1094,129.625 215.875,129.8906 Q215.6406,130.1563 215.2656,130.1563 Q214.9219,130.1563 214.7188,129.9531 Q214.5156,129.7656 214.4063,129.25 Q214.3594,128.8906 214.1719,128.7031 Q213.8438,128.3281 213.2344,128.1094 Q212.625,127.8906 212,127.8906 Q211.2344,127.8906 210.6016,128.2188 Q209.9688,128.5469 209.4766,129.2969 Q208.9844,130.0469 208.9844,131.0781 L208.9844,132.1719 Q208.9844,133.4063 209.875,134.2266 Q210.7656,135.0469 212.3594,135.0469 Q213.2969,135.0469 213.9531,134.7969 Q214.3438,134.6406 214.7656,134.2031 Q215.0313,133.9375 215.1797,133.8594 Q215.3281,133.7813 215.5313,133.7813 Q215.8594,133.7813 216.1172,134.0391 Q216.375,134.2969 216.375,134.6406 Q216.375,134.9844 216.0313,135.3906 Q215.5313,135.9688 214.7344,136.2969 Q213.6563,136.75 212.3594,136.75 Q210.8438,136.75 209.6406,136.125 Q208.6563,135.625 207.9688,134.5547 Q207.2813,133.4844 207.2813,132.2031 L207.2813,131.0469 Q207.2813,129.7188 207.8984,128.5703 Q208.5156,127.4219 209.6094,126.8047 Q210.7031,126.1875 211.9375,126.1875 Q212.6719,126.1875 213.3203,126.3516 Q213.9688,126.5156 214.5156,126.875 Z " fill="#000000"/><text fill="#000000" font-family="sans-serif" font-size="14" lengthAdjust="spacing" textLength="55" x="232.25" y="136.7285">Poligono</text><line style="stroke:#181818;stroke-width:0.5;" x1="8" x2="479" y1="147" y2="147"/><line style="stroke:#181818;stroke-width:0.5;" x1="8" x2="479" y1="155" y2="155"/><ellipse cx="18" cy="169.3047" fill="#84BE84" rx="3" ry="3" style="stroke:#038048;stroke-width:1.0;"/><text fill="#000000" font-family="sans-serif" font-size="14" lengthAdjust="spacing" textLength="447" x="27" y="173.5332">Poligono(_paiRef:Objeto, _rotulo:char, pontosPoligono:List&lt;Ponto4D&gt;)</text><rect fill="#F24D5C" height="6" style="stroke:#C82930;stroke-width:1.0;" width="6" x="15" y="183.9141"/><text fill="#000000" font-family="sans-serif" font-size="14" lengthAdjust="spacing" textLength="102" x="27" y="191.1426">Atualizar() : void</text><ellipse cx="18" cy="204.5234" fill="#84BE84" rx="3" ry="3" style="stroke:#038048;stroke-width:1.0;"/><text fill="#000000" font-family="sans-serif" font-size="14" lengthAdjust="spacing" textLength="183" x="27" y="208.752">&#171;override&#187; ToString() : string</text><rect fill="#F24D5C" height="6" style="stroke:#C82930;stroke-width:1.0;" width="6" x="15" y="219.1328"/><text fill="#000000" font-family="sans-serif" font-size="14" lengthAdjust="spacing" textLength="245" x="27" y="226.3613">PtoMaisProx(mouse:Ponto4D) : integer</text><rect fill="#F24D5C" height="6" style="stroke:#C82930;stroke-width:1.0;" width="6" x="15" y="236.7422"/><text fill="#000000" font-family="sans-serif" font-size="14" lengthAdjust="spacing" textLength="305" x="27" y="243.9707">Distancia(pto1:Ponto4D, pto2:Ponto4D) : double</text><ellipse cx="18" cy="257.3516" fill="#84BE84" rx="3" ry="3" style="stroke:#038048;stroke-width:1.0;"/><text fill="#000000" font-family="sans-serif" font-size="14" lengthAdjust="spacing" textLength="314" x="27" y="261.5801">PontosAlterarMaisProximo(mouse:Ponto4D) : void</text><ellipse cx="18" cy="274.9609" fill="#84BE84" rx="3" ry="3" style="stroke:#038048;stroke-width:1.0;"/><text fill="#000000" font-family="sans-serif" font-size="14" lengthAdjust="spacing" textLength="313" x="27" y="279.1895">PontosExcluirMaisProximo(mouse:Ponto4D) : void</text><ellipse cx="18" cy="292.5703" fill="#84BE84" rx="3" ry="3" style="stroke:#038048;stroke-width:1.0;"/><text fill="#000000" font-family="sans-serif" font-size="14" lengthAdjust="spacing" textLength="143" x="27" y="296.7988">AlterarPrimitiva() : void</text></g><!--class Objeto--><g id="elem_Objeto"><rect fill="#F1F1F1" height="48" id="Objeto" rx="2.5" ry="2.5" style="stroke:#181818;stroke-width:0.5;" width="74" x="206.5" y="7"/><ellipse cx="221.5" cy="23" fill="#ADD1B2" rx="11" ry="11" style="stroke:#181818;stroke-width:1.0;"/><path d="M224.2656,18.875 Q224.4219,18.6563 224.6094,18.5469 Q224.7969,18.4375 225.0156,18.4375 Q225.3906,18.4375 225.625,18.6953 Q225.8594,18.9531 225.8594,19.5625 L225.8594,21.0156 Q225.8594,21.625 225.625,21.8906 Q225.3906,22.1563 225.0156,22.1563 Q224.6719,22.1563 224.4688,21.9531 Q224.2656,21.7656 224.1563,21.25 Q224.1094,20.8906 223.9219,20.7031 Q223.5938,20.3281 222.9844,20.1094 Q222.375,19.8906 221.75,19.8906 Q220.9844,19.8906 220.3516,20.2188 Q219.7188,20.5469 219.2266,21.2969 Q218.7344,22.0469 218.7344,23.0781 L218.7344,24.1719 Q218.7344,25.4063 219.625,26.2266 Q220.5156,27.0469 222.1094,27.0469 Q223.0469,27.0469 223.7031,26.7969 Q224.0938,26.6406 224.5156,26.2031 Q224.7813,25.9375 224.9297,25.8594 Q225.0781,25.7813 225.2813,25.7813 Q225.6094,25.7813 225.8672,26.0391 Q226.125,26.2969 226.125,26.6406 Q226.125,26.9844 225.7813,27.3906 Q225.2813,27.9688 224.4844,28.2969 Q223.4063,28.75 222.1094,28.75 Q220.5938,28.75 219.3906,28.125 Q218.4063,27.625 217.7188,26.5547 Q217.0313,25.4844 217.0313,24.2031 L217.0313,23.0469 Q217.0313,21.7188 217.6484,20.5703 Q218.2656,19.4219 219.3594,18.8047 Q220.4531,18.1875 221.6875,18.1875 Q222.4219,18.1875 223.0703,18.3516 Q223.7188,18.5156 224.2656,18.875 Z " fill="#000000"/><text fill="#000000" font-family="sans-serif" font-size="14" lengthAdjust="spacing" textLength="42" x="235.5" y="28.7285">Objeto</text><line style="stroke:#181818;stroke-width:0.5;" x1="207.5" x2="279.5" y1="39" y2="39"/><line style="stroke:#181818;stroke-width:0.5;" x1="207.5" x2="279.5" y1="47" y2="47"/></g><!--reverse link Objeto to Poligono--><g id="link_Objeto_Poligono"><path codeLine="12" d="M243.5,73.07 C243.5,88.68 243.5,92.43 243.5,114.65 " fill="none" id="Objeto-backto-Poligono" style="stroke:#181818;stroke-width:1.0;"/><polygon fill="none" points="243.5,55.07,237.5,73.07,249.5,73.07,243.5,55.07" style="stroke:#181818;stroke-width:1.0;"/></g><!--SRC=[XP5DIyH038Rl_HKvTd5xK3mDfR2mtXG7zRxCjcCtCfsKJAOiVlntspejBXxCAOJtpPEFsfaGG9F3bZp1HmPZNAs5_D0RVBAlwl7uPeMsS62Iw4ZL9yDRwCaBXKMixZ58gQVQxRxQpAqAs4aq3jyDvnjGC10sYL6MD5XcR6nLmGiz2wDlPr6Oq-JNGWy6WsOwvnt5O5KYJ4hqOblBIReV-SRNQF9Uw7hHZMCAtVnsDHIFpgwhJZlid5Wsl92mex-mQNQuSDsTQnVnVrSo9OXcx51mC9SNcIFxodvE3ULdKQn_-0O0]--></g></svg>