<?xml version="1.0" encoding="us-ascii" standalone="no"?><svg xmlns="http://www.w3.org/2000/svg" xmlns:xlink="http://www.w3.org/1999/xlink" contentStyleType="text/css" height="240px" preserveAspectRatio="none" style="width:345px;height:240px;background:#FFFFFF;" version="1.1" viewBox="0 0 345 240" width="345px" zoomAndPan="magnify"><defs/><g><!--class Ponto--><g id="elem_Ponto"><rect codeLine="1" fill="#F1F1F1" height="118.4375" id="Ponto" rx="2.5" ry="2.5" style="stroke:#181818;stroke-width:0.5;" width="331" x="7" y="115"/><ellipse cx="149.75" cy="131" fill="#ADD1B2" rx="11" ry="11" style="stroke:#181818;stroke-width:1.0;"/><path d="M152.5156,126.875 Q152.6719,126.6563 152.8594,126.5469 Q153.0469,126.4375 153.2656,126.4375 Q153.6406,126.4375 153.875,126.6953 Q154.1094,126.9531 154.1094,127.5625 L154.1094,129.0156 Q154.1094,129.625 153.875,129.8906 Q153.6406,130.1563 153.2656,130.1563 Q152.9219,130.1563 152.7188,129.9531 Q152.5156,129.7656 152.4063,129.25 Q152.3594,128.8906 152.1719,128.7031 Q151.8438,128.3281 151.2344,128.1094 Q150.625,127.8906 150,127.8906 Q149.2344,127.8906 148.6016,128.2188 Q147.9688,128.5469 147.4766,129.2969 Q146.9844,130.0469 146.9844,131.0781 L146.9844,132.1719 Q146.9844,133.4063 147.875,134.2266 Q148.7656,135.0469 150.3594,135.0469 Q151.2969,135.0469 151.9531,134.7969 Q152.3438,134.6406 152.7656,134.2031 Q153.0313,133.9375 153.1797,133.8594 Q153.3281,133.7813 153.5313,133.7813 Q153.8594,133.7813 154.1172,134.0391 Q154.375,134.2969 154.375,134.6406 Q154.375,134.9844 154.0313,135.3906 Q153.5313,135.9688 152.7344,136.2969 Q151.6563,136.75 150.3594,136.75 Q148.8438,136.75 147.6406,136.125 Q146.6563,135.625 145.9688,134.5547 Q145.2813,133.4844 145.2813,132.2031 L145.2813,131.0469 Q145.2813,129.7188 145.8984,128.5703 Q146.5156,127.4219 147.6094,126.8047 Q148.7031,126.1875 149.9375,126.1875 Q150.6719,126.1875 151.3203,126.3516 Q151.9688,126.5156 152.5156,126.875 Z " fill="#000000"/><text fill="#000000" font-family="sans-serif" font-size="14" lengthAdjust="spacing" textLength="37" x="170.25" y="136.7285">Ponto</text><line style="stroke:#181818;stroke-width:0.5;" x1="8" x2="337" y1="147" y2="147"/><line style="stroke:#181818;stroke-width:0.5;" x1="8" x2="337" y1="155" y2="155"/><ellipse cx="18" cy="169.3047" fill="#84BE84" rx="3" ry="3" style="stroke:#038048;stroke-width:1.0;"/><text fill="#000000" font-family="sans-serif" font-size="14" lengthAdjust="spacing" textLength="218" x="27" y="173.5332">Ponto(paiRef:Objeto, _rotulo:char)</text><ellipse cx="18" cy="186.9141" fill="#84BE84" rx="3" ry="3" style="stroke:#038048;stroke-width:1.0;"/><text fill="#000000" font-family="sans-serif" font-size="14" lengthAdjust="spacing" textLength="305" x="27" y="191.1426">Ponto(paiRef:Objeto, _rotulo:char, pto:Ponto4D)</text><ellipse cx="18" cy="204.5234" fill="#84BE84" rx="3" ry="3" style="stroke:#038048;stroke-width:1.0;"/><text fill="#000000" font-family="sans-serif" font-size="14" lengthAdjust="spacing" textLength="102" x="27" y="208.752">Atualizar() : void</text><ellipse cx="18" cy="222.1328" fill="#84BE84" rx="3" ry="3" style="stroke:#038048;stroke-width:1.0;"/><text fill="#000000" font-family="sans-serif" font-size="14" lengthAdjust="spacing" textLength="183" x="27" y="226.3613">&#171;override&#187; ToString() : string</text></g><!--class Objeto--><g id="elem_Objeto"><rect fill="#F1F1F1" height="48" id="Objeto" rx="2.5" ry="2.5" style="stroke:#181818;stroke-width:0.5;" width="74" x="135.5" y="7"/><ellipse cx="150.5" cy="23" fill="#ADD1B2" rx="11" ry="11" style="stroke:#181818;stroke-width:1.0;"/><path d="M153.2656,18.875 Q153.4219,18.6563 153.6094,18.5469 Q153.7969,18.4375 154.0156,18.4375 Q154.3906,18.4375 154.625,18.6953 Q154.8594,18.9531 154.8594,19.5625 L154.8594,21.0156 Q154.8594,21.625 154.625,21.8906 Q154.3906,22.1563 154.0156,22.1563 Q153.6719,22.1563 153.4688,21.9531 Q153.2656,21.7656 153.1563,21.25 Q153.1094,20.8906 152.9219,20.7031 Q152.5938,20.3281 151.9844,20.1094 Q151.375,19.8906 150.75,19.8906 Q149.9844,19.8906 149.3516,20.2188 Q148.7188,20.5469 148.2266,21.2969 Q147.7344,22.0469 147.7344,23.0781 L147.7344,24.1719 Q147.7344,25.4063 148.625,26.2266 Q149.5156,27.0469 151.1094,27.0469 Q152.0469,27.0469 152.7031,26.7969 Q153.0938,26.6406 153.5156,26.2031 Q153.7813,25.9375 153.9297,25.8594 Q154.0781,25.7813 154.2813,25.7813 Q154.6094,25.7813 154.8672,26.0391 Q155.125,26.2969 155.125,26.6406 Q155.125,26.9844 154.7813,27.3906 Q154.2813,27.9688 153.4844,28.2969 Q152.4063,28.75 151.1094,28.75 Q149.5938,28.75 148.3906,28.125 Q147.4063,27.625 146.7188,26.5547 Q146.0313,25.4844 146.0313,24.2031 L146.0313,23.0469 Q146.0313,21.7188 146.6484,20.5703 Q147.2656,19.4219 148.3594,18.8047 Q149.4531,18.1875 150.6875,18.1875 Q151.4219,18.1875 152.0703,18.3516 Q152.7188,18.5156 153.2656,18.875 Z " fill="#000000"/><text fill="#000000" font-family="sans-serif" font-size="14" lengthAdjust="spacing" textLength="42" x="164.5" y="28.7285">Objeto</text><line style="stroke:#181818;stroke-width:0.5;" x1="136.5" x2="208.5" y1="39" y2="39"/><line style="stroke:#181818;stroke-width:0.5;" x1="136.5" x2="208.5" y1="47" y2="47"/></g><!--reverse link Objeto to Ponto--><g id="link_Objeto_Ponto"><path codeLine="7" d="M172.5,73.28 C172.5,89.55 172.5,94.03 172.5,114.99 " fill="none" id="Objeto-backto-Ponto" style="stroke:#181818;stroke-width:1.0;"/><polygon fill="none" points="172.5,55.28,166.5,73.28,178.5,73.28,172.5,55.28" style="stroke:#181818;stroke-width:1.0;"/></g><!--SRC=[Iyv9B2vM2CZFAybNgEPI009j24-Z834pA3NDoZyfAxKaNqSXlYY_f3Gdtoev8x58arY5EWe59VbMO6KcBZ1TZYMbYJcPLOb56feALWfb-PafK0aRc_oorAAYp9HKEpk5aFpWagBCl7Imec8mawkM2sA9WasDhYx4TW00]--></g></svg>