<?xml version="1.0" encoding="us-ascii" standalone="no"?><svg xmlns="http://www.w3.org/2000/svg" xmlns:xlink="http://www.w3.org/1999/xlink" contentStyleType="text/css" height="79px" preserveAspectRatio="none" style="width:107px;height:79px;background:#FFFFFF;" version="1.1" viewBox="0 0 107 79" width="107px" zoomAndPan="magnify"><defs/><g><!--class Program--><g id="elem_Program"><rect codeLine="1" fill="#F1F1F1" height="58.7031" id="Program" rx="2.5" ry="2.5" style="stroke:#181818;stroke-width:0.5;" width="86" x="7" y="7"/><ellipse cx="22" cy="28.3516" fill="#ADD1B2" rx="11" ry="11" style="stroke:#181818;stroke-width:1.0;"/><path d="M24.7656,24.2266 Q24.9219,24.0078 25.1094,23.8984 Q25.2969,23.7891 25.5156,23.7891 Q25.8906,23.7891 26.125,24.0469 Q26.3594,24.3047 26.3594,24.9141 L26.3594,26.3672 Q26.3594,26.9766 26.125,27.2422 Q25.8906,27.5078 25.5156,27.5078 Q25.1719,27.5078 24.9688,27.3047 Q24.7656,27.1172 24.6563,26.6016 Q24.6094,26.2422 24.4219,26.0547 Q24.0938,25.6797 23.4844,25.4609 Q22.875,25.2422 22.25,25.2422 Q21.4844,25.2422 20.8516,25.5703 Q20.2188,25.8984 19.7266,26.6484 Q19.2344,27.3984 19.2344,28.4297 L19.2344,29.5234 Q19.2344,30.7578 20.125,31.5781 Q21.0156,32.3984 22.6094,32.3984 Q23.5469,32.3984 24.2031,32.1484 Q24.5938,31.9922 25.0156,31.5547 Q25.2813,31.2891 25.4297,31.2109 Q25.5781,31.1328 25.7813,31.1328 Q26.1094,31.1328 26.3672,31.3906 Q26.625,31.6484 26.625,31.9922 Q26.625,32.3359 26.2813,32.7422 Q25.7813,33.3203 24.9844,33.6484 Q23.9063,34.1016 22.6094,34.1016 Q21.0938,34.1016 19.8906,33.4766 Q18.9063,32.9766 18.2188,31.9063 Q17.5313,30.8359 17.5313,29.5547 L17.5313,28.3984 Q17.5313,27.0703 18.1484,25.9219 Q18.7656,24.7734 19.8594,24.1563 Q20.9531,23.5391 22.1875,23.5391 Q22.9219,23.5391 23.5703,23.7031 Q24.2188,23.8672 24.7656,24.2266 Z " fill="#000000"/><text fill="#000000" font-family="sans-serif" font-size="12" font-style="italic" lengthAdjust="spacing" textLength="42" x="42" y="24.457">&#171;static&#187;</text><text fill="#000000" font-family="sans-serif" font-size="14" lengthAdjust="spacing" textLength="54" x="36" y="41.627">Program</text><line style="stroke:#181818;stroke-width:0.5;" x1="8" x2="92" y1="49.7031" y2="49.7031"/><line style="stroke:#181818;stroke-width:0.5;" x1="8" x2="92" y1="57.7031" y2="57.7031"/></g><!--SRC=[Iyv9B2vM22ZAJozAp5MmiIakIIp9JBQpKwZcgWK0]--></g></svg>