<?xml version="1.0" encoding="us-ascii" standalone="no"?><svg xmlns="http://www.w3.org/2000/svg" xmlns:xlink="http://www.w3.org/1999/xlink" contentStyleType="text/css" height="222px" preserveAspectRatio="none" style="width:542px;height:222px;background:#FFFFFF;" version="1.1" viewBox="0 0 542 222" width="542px" zoomAndPan="magnify"><defs/><g><!--class Retangulo--><g id="elem_Retangulo"><rect codeLine="1" fill="#F1F1F1" height="100.8281" id="Retangulo" rx="2.5" ry="2.5" style="stroke:#181818;stroke-width:0.5;" width="528" x="7" y="115"/><ellipse cx="234.25" cy="131" fill="#ADD1B2" rx="11" ry="11" style="stroke:#181818;stroke-width:1.0;"/><path d="M237.0156,126.875 Q237.1719,126.6563 237.3594,126.5469 Q237.5469,126.4375 237.7656,126.4375 Q238.1406,126.4375 238.375,126.6953 Q238.6094,126.9531 238.6094,127.5625 L238.6094,129.0156 Q238.6094,129.625 238.375,129.8906 Q238.1406,130.1563 237.7656,130.1563 Q237.4219,130.1563 237.2188,129.9531 Q237.0156,129.7656 236.9063,129.25 Q236.8594,128.8906 236.6719,128.7031 Q236.3438,128.3281 235.7344,128.1094 Q235.125,127.8906 234.5,127.8906 Q233.7344,127.8906 233.1016,128.2188 Q232.4688,128.5469 231.9766,129.2969 Q231.4844,130.0469 231.4844,131.0781 L231.4844,132.1719 Q231.4844,133.4063 232.375,134.2266 Q233.2656,135.0469 234.8594,135.0469 Q235.7969,135.0469 236.4531,134.7969 Q236.8438,134.6406 237.2656,134.2031 Q237.5313,133.9375 237.6797,133.8594 Q237.8281,133.7813 238.0313,133.7813 Q238.3594,133.7813 238.6172,134.0391 Q238.875,134.2969 238.875,134.6406 Q238.875,134.9844 238.5313,135.3906 Q238.0313,135.9688 237.2344,136.2969 Q236.1563,136.75 234.8594,136.75 Q233.3438,136.75 232.1406,136.125 Q231.1563,135.625 230.4688,134.5547 Q229.7813,133.4844 229.7813,132.2031 L229.7813,131.0469 Q229.7813,129.7188 230.3984,128.5703 Q231.0156,127.4219 232.1094,126.8047 Q233.2031,126.1875 234.4375,126.1875 Q235.1719,126.1875 235.8203,126.3516 Q236.4688,126.5156 237.0156,126.875 Z " fill="#000000"/><text fill="#000000" font-family="sans-serif" font-size="14" lengthAdjust="spacing" textLength="65" x="254.75" y="136.7285">Retangulo</text><line style="stroke:#181818;stroke-width:0.5;" x1="8" x2="534" y1="147" y2="147"/><line style="stroke:#181818;stroke-width:0.5;" x1="8" x2="534" y1="155" y2="155"/><ellipse cx="18" cy="169.3047" fill="#84BE84" rx="3" ry="3" style="stroke:#038048;stroke-width:1.0;"/><text fill="#000000" font-family="sans-serif" font-size="14" lengthAdjust="spacing" textLength="246" x="27" y="173.5332">Retangulo(paiRef:Objeto, _rotulo:char)</text><ellipse cx="18" cy="186.9141" fill="#84BE84" rx="3" ry="3" style="stroke:#038048;stroke-width:1.0;"/><text fill="#000000" font-family="sans-serif" font-size="14" lengthAdjust="spacing" textLength="502" x="27" y="191.1426">Retangulo(paiRef:Objeto, _rotulo:char, ptoInfEsq:Ponto4D, ptoSupDir:Ponto4D)</text><ellipse cx="18" cy="204.5234" fill="#84BE84" rx="3" ry="3" style="stroke:#038048;stroke-width:1.0;"/><text fill="#000000" font-family="sans-serif" font-size="14" lengthAdjust="spacing" textLength="183" x="27" y="208.752">&#171;override&#187; ToString() : string</text></g><!--class Objeto--><g id="elem_Objeto"><rect fill="#F1F1F1" height="48" id="Objeto" rx="2.5" ry="2.5" style="stroke:#181818;stroke-width:0.5;" width="74" x="234" y="7"/><ellipse cx="249" cy="23" fill="#ADD1B2" rx="11" ry="11" style="stroke:#181818;stroke-width:1.0;"/><path d="M251.7656,18.875 Q251.9219,18.6563 252.1094,18.5469 Q252.2969,18.4375 252.5156,18.4375 Q252.8906,18.4375 253.125,18.6953 Q253.3594,18.9531 253.3594,19.5625 L253.3594,21.0156 Q253.3594,21.625 253.125,21.8906 Q252.8906,22.1563 252.5156,22.1563 Q252.1719,22.1563 251.9688,21.9531 Q251.7656,21.7656 251.6563,21.25 Q251.6094,20.8906 251.4219,20.7031 Q251.0938,20.3281 250.4844,20.1094 Q249.875,19.8906 249.25,19.8906 Q248.4844,19.8906 247.8516,20.2188 Q247.2188,20.5469 246.7266,21.2969 Q246.2344,22.0469 246.2344,23.0781 L246.2344,24.1719 Q246.2344,25.4063 247.125,26.2266 Q248.0156,27.0469 249.6094,27.0469 Q250.5469,27.0469 251.2031,26.7969 Q251.5938,26.6406 252.0156,26.2031 Q252.2813,25.9375 252.4297,25.8594 Q252.5781,25.7813 252.7813,25.7813 Q253.1094,25.7813 253.3672,26.0391 Q253.625,26.2969 253.625,26.6406 Q253.625,26.9844 253.2813,27.3906 Q252.7813,27.9688 251.9844,28.2969 Q250.9063,28.75 249.6094,28.75 Q248.0938,28.75 246.8906,28.125 Q245.9063,27.625 245.2188,26.5547 Q244.5313,25.4844 244.5313,24.2031 L244.5313,23.0469 Q244.5313,21.7188 245.1484,20.5703 Q245.7656,19.4219 246.8594,18.8047 Q247.9531,18.1875 249.1875,18.1875 Q249.9219,18.1875 250.5703,18.3516 Q251.2188,18.5156 251.7656,18.875 Z " fill="#000000"/><text fill="#000000" font-family="sans-serif" font-size="14" lengthAdjust="spacing" textLength="42" x="263" y="28.7285">Objeto</text><line style="stroke:#181818;stroke-width:0.5;" x1="235" x2="307" y1="39" y2="39"/><line style="stroke:#181818;stroke-width:0.5;" x1="235" x2="307" y1="47" y2="47"/></g><!--reverse link Objeto to Retangulo--><g id="link_Objeto_Retangulo"><path codeLine="6" d="M271,73.08 C271,89.54 271,94.3 271,114.8 " fill="none" id="Objeto-backto-Retangulo" style="stroke:#181818;stroke-width:1.0;"/><polygon fill="none" points="271,55.08,265,73.08,277,73.08,271,55.08" style="stroke:#181818;stroke-width:1.0;"/></g><!--SRC=[Iyv9B2vM24ejISnBByt9LwZcKW02ROI8Ha5YPb1gcfL_KbPgIRwEGdnHVWbGs2ev8x58anJ5EWe59VcUUMcknOLM0Vbv9VacBc2XuD82bymYc13CI1kR_BBKegBCb5GxEuMG_E2IeioyT0rD1Ik5OZ2JgvOBOec2JOskBi850000]--></g></svg>