<?xml version="1.0" encoding="us-ascii" standalone="no"?><svg xmlns="http://www.w3.org/2000/svg" xmlns:xlink="http://www.w3.org/1999/xlink" contentStyleType="text/css" height="275px" preserveAspectRatio="none" style="width:294px;height:275px;background:#FFFFFF;" version="1.1" viewBox="0 0 294 275" width="294px" zoomAndPan="magnify"><defs/><g><!--class SrPalito--><g id="elem_SrPalito"><rect codeLine="1" fill="#F1F1F1" height="153.6563" id="SrPalito" rx="2.5" ry="2.5" style="stroke:#181818;stroke-width:0.5;" width="280" x="7" y="115"/><ellipse cx="118.25" cy="131" fill="#ADD1B2" rx="11" ry="11" style="stroke:#181818;stroke-width:1.0;"/><path d="M121.0156,126.875 Q121.1719,126.6563 121.3594,126.5469 Q121.5469,126.4375 121.7656,126.4375 Q122.1406,126.4375 122.375,126.6953 Q122.6094,126.9531 122.6094,127.5625 L122.6094,129.0156 Q122.6094,129.625 122.375,129.8906 Q122.1406,130.1563 121.7656,130.1563 Q121.4219,130.1563 121.2188,129.9531 Q121.0156,129.7656 120.9063,129.25 Q120.8594,128.8906 120.6719,128.7031 Q120.3438,128.3281 119.7344,128.1094 Q119.125,127.8906 118.5,127.8906 Q117.7344,127.8906 117.1016,128.2188 Q116.4688,128.5469 115.9766,129.2969 Q115.4844,130.0469 115.4844,131.0781 L115.4844,132.1719 Q115.4844,133.4063 116.375,134.2266 Q117.2656,135.0469 118.8594,135.0469 Q119.7969,135.0469 120.4531,134.7969 Q120.8438,134.6406 121.2656,134.2031 Q121.5313,133.9375 121.6797,133.8594 Q121.8281,133.7813 122.0313,133.7813 Q122.3594,133.7813 122.6172,134.0391 Q122.875,134.2969 122.875,134.6406 Q122.875,134.9844 122.5313,135.3906 Q122.0313,135.9688 121.2344,136.2969 Q120.1563,136.75 118.8594,136.75 Q117.3438,136.75 116.1406,136.125 Q115.1563,135.625 114.4688,134.5547 Q113.7813,133.4844 113.7813,132.2031 L113.7813,131.0469 Q113.7813,129.7188 114.3984,128.5703 Q115.0156,127.4219 116.1094,126.8047 Q117.2031,126.1875 118.4375,126.1875 Q119.1719,126.1875 119.8203,126.3516 Q120.4688,126.5156 121.0156,126.875 Z " fill="#000000"/><text fill="#000000" font-family="sans-serif" font-size="14" lengthAdjust="spacing" textLength="49" x="138.75" y="136.7285">SrPalito</text><line style="stroke:#181818;stroke-width:0.5;" x1="8" x2="286" y1="147" y2="147"/><line style="stroke:#181818;stroke-width:0.5;" x1="8" x2="286" y1="155" y2="155"/><ellipse cx="18" cy="169.3047" fill="#84BE84" rx="3" ry="3" style="stroke:#038048;stroke-width:1.0;"/><text fill="#000000" font-family="sans-serif" font-size="14" lengthAdjust="spacing" textLength="230" x="27" y="173.5332">SrPalito(paiRef:Objeto, _rotulo:char)</text><ellipse cx="18" cy="186.9141" fill="#84BE84" rx="3" ry="3" style="stroke:#038048;stroke-width:1.0;"/><text fill="#000000" font-family="sans-serif" font-size="14" lengthAdjust="spacing" textLength="102" x="27" y="191.1426">Atualizar() : void</text><ellipse cx="18" cy="204.5234" fill="#84BE84" rx="3" ry="3" style="stroke:#038048;stroke-width:1.0;"/><text fill="#000000" font-family="sans-serif" font-size="14" lengthAdjust="spacing" textLength="200" x="27" y="208.752">AtualizarPe(peInc:double) : void</text><ellipse cx="18" cy="222.1328" fill="#84BE84" rx="3" ry="3" style="stroke:#038048;stroke-width:1.0;"/><text fill="#000000" font-family="sans-serif" font-size="14" lengthAdjust="spacing" textLength="220" x="27" y="226.3613">AtualizarRaio(raioInc:double) : void</text><ellipse cx="18" cy="239.7422" fill="#84BE84" rx="3" ry="3" style="stroke:#038048;stroke-width:1.0;"/><text fill="#000000" font-family="sans-serif" font-size="14" lengthAdjust="spacing" textLength="254" x="27" y="243.9707">AtualizarAngulo(anguloInc:double) : void</text><ellipse cx="18" cy="257.3516" fill="#84BE84" rx="3" ry="3" style="stroke:#038048;stroke-width:1.0;"/><text fill="#000000" font-family="sans-serif" font-size="14" lengthAdjust="spacing" textLength="183" x="27" y="261.5801">&#171;override&#187; ToString() : string</text></g><!--class Objeto--><g id="elem_Objeto"><rect fill="#F1F1F1" height="48" id="Objeto" rx="2.5" ry="2.5" style="stroke:#181818;stroke-width:0.5;" width="74" x="110" y="7"/><ellipse cx="125" cy="23" fill="#ADD1B2" rx="11" ry="11" style="stroke:#181818;stroke-width:1.0;"/><path d="M127.7656,18.875 Q127.9219,18.6563 128.1094,18.5469 Q128.2969,18.4375 128.5156,18.4375 Q128.8906,18.4375 129.125,18.6953 Q129.3594,18.9531 129.3594,19.5625 L129.3594,21.0156 Q129.3594,21.625 129.125,21.8906 Q128.8906,22.1563 128.5156,22.1563 Q128.1719,22.1563 127.9688,21.9531 Q127.7656,21.7656 127.6563,21.25 Q127.6094,20.8906 127.4219,20.7031 Q127.0938,20.3281 126.4844,20.1094 Q125.875,19.8906 125.25,19.8906 Q124.4844,19.8906 123.8516,20.2188 Q123.2188,20.5469 122.7266,21.2969 Q122.2344,22.0469 122.2344,23.0781 L122.2344,24.1719 Q122.2344,25.4063 123.125,26.2266 Q124.0156,27.0469 125.6094,27.0469 Q126.5469,27.0469 127.2031,26.7969 Q127.5938,26.6406 128.0156,26.2031 Q128.2813,25.9375 128.4297,25.8594 Q128.5781,25.7813 128.7813,25.7813 Q129.1094,25.7813 129.3672,26.0391 Q129.625,26.2969 129.625,26.6406 Q129.625,26.9844 129.2813,27.3906 Q128.7813,27.9688 127.9844,28.2969 Q126.9063,28.75 125.6094,28.75 Q124.0938,28.75 122.8906,28.125 Q121.9063,27.625 121.2188,26.5547 Q120.5313,25.4844 120.5313,24.2031 L120.5313,23.0469 Q120.5313,21.7188 121.1484,20.5703 Q121.7656,19.4219 122.8594,18.8047 Q123.9531,18.1875 125.1875,18.1875 Q125.9219,18.1875 126.5703,18.3516 Q127.2188,18.5156 127.7656,18.875 Z " fill="#000000"/><text fill="#000000" font-family="sans-serif" font-size="14" lengthAdjust="spacing" textLength="42" x="139" y="28.7285">Objeto</text><line style="stroke:#181818;stroke-width:0.5;" x1="111" x2="183" y1="39" y2="39"/><line style="stroke:#181818;stroke-width:0.5;" x1="111" x2="183" y1="47" y2="47"/></g><!--reverse link Objeto to SrPalito--><g id="link_Objeto_SrPalito"><path codeLine="9" d="M147,73.12 C147,88.97 147,92.97 147,114.67 " fill="none" id="Objeto-backto-SrPalito" style="stroke:#181818;stroke-width:1.0;"/><polygon fill="none" points="147,55.12,141,73.12,153,73.12,147,55.12" style="stroke:#181818;stroke-width:1.0;"/></g><!--SRC=[XO-z3eCm38Htdi9ZKCiBH14IOwSYw5uPuj9K4KOcCFJdtHlHYg4IgeUpvVk6kzRZE48j9NeN61u9nDcj3pMWg-YYZysD0k_XB1mcpxgzegHVjWXJPEyeAWKDCplxQvIa1ZhqhROyDPwsi0eTAudo7otwBiPGkAnDt1YUISHPodCuSHt4zTsISbpEv9LyYe5vPjbQ-Wq0]--></g></svg>